<svg width="48" height="48" viewBox="0 0 48 48" fill="none" xmlns="http://www.w3.org/2000/svg">
<rect width="48" height="48" rx="16" fill="url(#paint0_linear_3390_117982)"/>
<path fill-rule="evenodd" clip-rule="evenodd" d="M19 17.9999C16.2386 17.9999 14 20.2385 14 22.9999V28.9999C14 31.7614 16.2386 33.9999 19 33.9999H29C31.6776 33.9999 33.8636 31.8952 33.9939 29.2499H29.5C27.7051 29.2499 26.25 27.7949 26.25 25.9999C26.25 24.205 27.7051 22.7499 29.5 22.7499H33.9939C33.8636 20.1047 31.6776 17.9999 29 17.9999H19ZM29.5 24.2499H34V27.7499H29.5C28.5335 27.7499 27.75 26.9664 27.75 25.9999C27.75 25.0334 28.5335 24.2499 29.5 24.2499ZM18 28.7499C17.5858 28.7499 17.25 29.0857 17.25 29.4999C17.25 29.9142 17.5858 30.2499 18 30.2499H24C24.4142 30.2499 24.75 29.9142 24.75 29.4999C24.75 29.0857 24.4142 28.7499 24 28.7499H18ZM29.5 25.2499C29.0858 25.2499 28.75 25.5857 28.75 25.9999C28.75 26.4142 29.0858 26.7499 29.5 26.7499H29.7C30.1142 26.7499 30.45 26.4142 30.45 25.9999C30.45 25.5857 30.1142 25.2499 29.7 25.2499H29.5Z" fill="#6363E6"/>
<path d="M31.4878 16.9929C30.7667 15.0015 28.6606 13.7159 26.4414 14.1728L17.8406 15.9435C16.0443 16.3134 14.5889 17.4976 13.8276 19.0629C15.0151 17.5052 16.8902 16.4999 19.0001 16.4999H29.0001C29.8813 16.4999 30.7215 16.6752 31.4878 16.9929Z" fill="#6363E6"/>
<defs>
<linearGradient id="paint0_linear_3390_117982" x1="24" y1="0" x2="24" y2="48" gradientUnits="userSpaceOnUse">
<stop stop-color="#E9E9FF"/>
<stop offset="1" stop-color="#C9EEFF"/>
</linearGradient>
</defs>
</svg>
