<svg width="16" height="16" viewBox="0 0 16 16" fill="none" xmlns="http://www.w3.org/2000/svg">
<path d="M2.6665 2.8335C2.6665 2.00507 3.33808 1.3335 4.1665 1.3335H6.49984C7.32826 1.3335 7.99984 2.00507 7.99984 2.8335V7.16683C7.99984 7.99526 7.32826 8.66683 6.49984 8.66683H2.6665V2.8335Z" stroke="#6363E6" stroke-width="1.5"/>
<path d="M8 2.66699H11.3696C12.1868 2.66699 12.659 3.59419 12.1783 4.25516L11.5222 5.15732C11.0122 5.85862 11.0122 6.8087 11.5222 7.51L12.1783 8.41215C12.659 9.07312 12.1868 10.0003 11.3696 10.0003H9C8.44772 10.0003 8 9.55261 8 9.00033V2.66699Z" stroke="#6363E6" stroke-width="1.5"/>
<path d="M2.6665 14.667L2.6665 2.66699" stroke="#6363E6" stroke-width="1.5" stroke-linecap="round" stroke-linejoin="round"/>
</svg>
