<svg width="24" height="24" viewBox="0 0 24 24" fill="none" xmlns="http://www.w3.org/2000/svg">
<path d="M20.4098 6.96043V8.79043C20.4098 9.43043 20.1098 10.0304 19.5898 10.4004L8.58984 18.4604C7.87984 18.9804 6.90984 18.9804 6.20984 18.4504L4.76984 17.3704C4.11984 16.8804 3.58984 15.8204 3.58984 15.0104V6.96043C3.58984 5.84043 4.44984 4.60043 5.49984 4.21043L10.9698 2.16043C11.5398 1.95043 12.4598 1.95043 13.0298 2.16043L18.4998 4.21043C19.5498 4.60043 20.4098 5.84043 20.4098 6.96043Z" fill="#6363E6"/>
<path d="M18.8201 12.3404C19.4801 11.8604 20.4101 12.3304 20.4101 13.1504V15.0304C20.4101 15.8404 19.8801 16.8904 19.2301 17.3804L13.7601 21.4704C13.2801 21.8204 12.6401 22.0004 12.0001 22.0004C11.3601 22.0004 10.7201 21.8204 10.2401 21.4604L9.41011 20.8404C8.87011 20.4404 8.87011 19.6304 9.42011 19.2304L18.8201 12.3404Z" fill="#6363E6"/>
</svg>
