<svg width="25" height="24" viewBox="0 0 25 24" fill="none" xmlns="http://www.w3.org/2000/svg">
<path d="M19.3101 6.25047H20.6701C20.4801 5.98047 20.2801 5.73047 20.0701 5.48047L19.3101 6.25047Z" fill="#6363E6"/>
<path d="M19.02 4.42031C18.77 4.21031 18.52 4.01031 18.25 3.82031V5.18031L19.02 4.42031Z" fill="#6363E6"/>
<path d="M20.08 5.48043L23.03 2.53043C23.32 2.24043 23.32 1.76043 23.03 1.47043C22.74 1.18043 22.26 1.18043 21.97 1.47043L19.02 4.42043C19.4 4.75043 19.75 5.11043 20.08 5.48043Z" fill="#6363E6"/>
<path d="M18.2498 3C18.2498 2.59 17.9098 2.25 17.4998 2.25C17.0998 2.25 16.7798 2.57 16.7598 2.96C17.2798 3.21 17.7798 3.49 18.2498 3.82V3Z" fill="#6363E6"/>
<path d="M22.2499 7C22.2499 6.59 21.9099 6.25 21.4999 6.25H20.6699C20.9999 6.72 21.2899 7.22 21.5299 7.74C21.9299 7.72 22.2499 7.4 22.2499 7Z" fill="#6363E6"/>
<path d="M13.25 14.7498H13.55C13.94 14.7498 14.25 14.3998 14.25 13.9698C14.25 13.4298 14.1 13.3498 13.76 13.2298L13.25 13.0498V14.7498Z" fill="#6363E6"/>
<path d="M21.54 7.74C21.53 7.74 21.52 7.75 21.5 7.75H17.5C17.4 7.75 17.31 7.73 17.21 7.69C17.03 7.61 16.88 7.47 16.8 7.28C16.77 7.19 16.75 7.1 16.75 7V3C16.75 2.99 16.76 2.98 16.76 2.96C15.46 2.35 14.02 2 12.5 2C6.98 2 2.5 6.48 2.5 12C2.5 17.52 6.98 22 12.5 22C18.02 22 22.5 17.52 22.5 12C22.5 10.48 22.15 9.04 21.54 7.74ZM14.25 11.82C14.89 12.04 15.75 12.51 15.75 13.98C15.75 15.23 14.76 16.26 13.55 16.26H13.25V16.51C13.25 16.92 12.91 17.26 12.5 17.26C12.09 17.26 11.75 16.92 11.75 16.51V16.26H11.67C10.34 16.26 9.25 15.14 9.25 13.76C9.25 13.34 9.59 13 10 13C10.41 13 10.75 13.34 10.75 13.75C10.75 14.3 11.16 14.75 11.67 14.75H11.75V12.53L10.75 12.18C10.11 11.96 9.25 11.49 9.25 10.02C9.25 8.77 10.24 7.74 11.45 7.74H11.75V7.5C11.75 7.09 12.09 6.75 12.5 6.75C12.91 6.75 13.25 7.09 13.25 7.5V7.75H13.33C14.66 7.75 15.75 8.87 15.75 10.25C15.75 10.66 15.41 11 15 11C14.59 11 14.25 10.66 14.25 10.25C14.25 9.7 13.84 9.25 13.33 9.25H13.25V11.47L14.25 11.82Z" fill="#6363E6"/>
<path d="M10.75 10.03C10.75 10.57 10.9 10.65 11.24 10.77L11.75 10.95V9.25H11.45C11.07 9.25 10.75 9.6 10.75 10.03Z" fill="#6363E6"/>
</svg>
