<svg width="140" height="140" viewBox="0 0 140 140" fill="none" xmlns="http://www.w3.org/2000/svg">
<mask id="mask0_3390_114413" style="mask-type:luminance" maskUnits="userSpaceOnUse" x="46" y="49" width="48" height="42">
<path d="M69.9993 56.7778C62.3959 37.9111 21.0045 57.6228 69.9993 90.5664C118.993 57.6228 77.601 37.9111 69.9993 56.7778Z" fill="white"/>
</mask>
<g mask="url(#mask0_3390_114413)">
<path d="M69.9993 56.7778C62.3959 37.9111 21.0045 57.6228 69.9993 90.5664C118.993 57.6228 77.601 37.9111 69.9993 56.7778Z" fill="url(#paint0_linear_3390_114413)"/>
</g>
<mask id="mask1_3390_114413" style="mask-type:luminance" maskUnits="userSpaceOnUse" x="65" y="0" width="10" height="24">
<path d="M69.9973 23.9033C67.2895 23.9033 65.0938 21.7092 65.0938 19.0013V4.90371C65.0938 2.19589 67.2895 0.000162125 69.9973 0.000162125C72.7051 0.000162125 74.9008 2.19589 74.9008 4.90371V19.0013C74.9008 21.7092 72.7051 23.9033 69.9973 23.9033Z" fill="white"/>
</mask>
<g mask="url(#mask1_3390_114413)">
<path d="M69.9973 23.9033C67.2895 23.9033 65.0938 21.7092 65.0938 19.0013V4.90371C65.0938 2.19589 67.2895 0.000162125 69.9973 0.000162125C72.7051 0.000162125 74.9008 2.19589 74.9008 4.90371V19.0013C74.9008 21.7092 72.7051 23.9033 69.9973 23.9033Z" fill="url(#paint1_linear_3390_114413)"/>
</g>
<mask id="mask2_3390_114413" style="mask-type:luminance" maskUnits="userSpaceOnUse" x="48" y="2" width="14" height="24">
<path d="M58.0659 25.4747C55.4493 26.1757 52.7607 24.6233 52.0597 22.0083L48.4125 8.39081C47.7115 5.77581 49.2639 3.08559 51.8789 2.38623C54.4939 1.68527 57.1825 3.23765 57.8834 5.85265L61.5323 19.4702C62.2333 22.0852 60.6809 24.7738 58.0659 25.4747Z" fill="white"/>
</mask>
<g mask="url(#mask2_3390_114413)">
<path d="M58.0659 25.4747C55.4493 26.1757 52.7607 24.6233 52.0597 22.0083L48.4125 8.39081C47.7115 5.77581 49.2639 3.08559 51.8789 2.38623C54.4939 1.68527 57.1825 3.23765 57.8834 5.85265L61.5323 19.4702C62.2333 22.0852 60.6809 24.7738 58.0659 25.4747Z" fill="url(#paint2_linear_3390_114413)"/>
</g>
<mask id="mask3_3390_114413" style="mask-type:luminance" maskUnits="userSpaceOnUse" x="32" y="8" width="18" height="23">
<path d="M46.9512 30.0791C44.606 31.433 41.6073 30.6296 40.2532 28.2851L33.2047 16.0759C31.8506 13.7313 32.654 10.7322 34.9995 9.37831C37.3444 8.02439 40.3431 8.82781 41.6972 11.174L48.7452 23.3815C50.0991 25.7261 49.2957 28.7252 46.9512 30.0791Z" fill="white"/>
</mask>
<g mask="url(#mask3_3390_114413)">
<path d="M46.9512 30.0791C44.606 31.433 41.6073 30.6296 40.2532 28.2851L33.2047 16.0759C31.8506 13.7313 32.654 10.7322 34.9995 9.37831C37.3444 8.02439 40.3431 8.82781 41.6972 11.174L48.7452 23.3815C50.0991 25.7261 49.2957 28.7252 46.9512 30.0791Z" fill="url(#paint3_linear_3390_114413)"/>
</g>
<mask id="mask4_3390_114413" style="mask-type:luminance" maskUnits="userSpaceOnUse" x="19" y="19" width="20" height="20">
<path d="M37.4006 37.4053C35.4858 39.3193 32.3814 39.3193 30.4665 37.4053L20.4986 27.4366C18.5838 25.5225 18.5838 22.4179 20.4986 20.5022C22.4135 18.5882 25.5179 18.5882 27.4333 20.5022L37.4006 30.4709C39.3161 32.3849 39.3161 35.4896 37.4006 37.4053Z" fill="white"/>
</mask>
<g mask="url(#mask4_3390_114413)">
<path d="M37.4006 37.4053C35.4858 39.3193 32.3814 39.3193 30.4665 37.4053L20.4986 27.4366C18.5838 25.5225 18.5838 22.4179 20.4986 20.5022C22.4135 18.5882 25.5179 18.5882 27.4333 20.5022L37.4006 30.4709C39.3161 32.3849 39.3161 35.4896 37.4006 37.4053Z" fill="url(#paint4_linear_3390_114413)"/>
</g>
<mask id="mask5_3390_114413" style="mask-type:luminance" maskUnits="userSpaceOnUse" x="8" y="32" width="23" height="18">
<path d="M30.0775 46.9515C28.7234 49.2976 25.7247 50.101 23.3796 48.7471L11.1712 41.6975C8.82637 40.3436 8.02235 37.3461 9.37642 35C10.7305 32.6554 13.7293 31.852 16.0749 33.206L28.2827 40.254C30.6282 41.6079 31.4316 44.607 30.0775 46.9515Z" fill="white"/>
</mask>
<g mask="url(#mask5_3390_114413)">
<path d="M30.0775 46.9515C28.7234 49.2976 25.7247 50.101 23.3796 48.7471L11.1712 41.6975C8.82637 40.3436 8.02235 37.3461 9.37642 35C10.7305 32.6554 13.7293 31.852 16.0749 33.206L28.2827 40.254C30.6282 41.6079 31.4316 44.607 30.0775 46.9515Z" fill="url(#paint5_linear_3390_114413)"/>
</g>
<mask id="mask6_3390_114413" style="mask-type:luminance" maskUnits="userSpaceOnUse" x="2" y="48" width="24" height="14">
<path d="M25.478 58.0692C24.7772 60.6858 22.0885 62.2382 19.4729 61.5373L5.85601 57.8884C3.24036 57.1874 1.68817 54.4988 2.38897 51.8822C3.08977 49.2672 5.77855 47.7149 8.39403 48.4158L22.0109 52.0646C24.6266 52.7656 26.1788 55.4542 25.478 58.0692Z" fill="white"/>
</mask>
<g mask="url(#mask6_3390_114413)">
<path d="M25.478 58.0692C24.7772 60.6858 22.0885 62.2382 19.4729 61.5373L5.85601 57.8884C3.24036 57.1874 1.68817 54.4988 2.38897 51.8822C3.08977 49.2672 5.77855 47.7149 8.39403 48.4158L22.0109 52.0646C24.6266 52.7656 26.1788 55.4542 25.478 58.0692Z" fill="url(#paint6_linear_3390_114413)"/>
</g>
<mask id="mask7_3390_114413" style="mask-type:luminance" maskUnits="userSpaceOnUse" x="-1" y="65" width="25" height="10">
<path d="M23.901 70.0003C23.901 72.7081 21.7061 74.9038 18.9979 74.9038H4.90093C2.19279 74.9038 -0.00195312 72.7081 -0.00195312 70.0003C-0.00195312 67.2925 2.19279 65.0968 4.90093 65.0968H18.9979C21.7061 65.0968 23.901 67.2925 23.901 70.0003Z" fill="white"/>
</mask>
<g mask="url(#mask7_3390_114413)">
<path d="M23.901 70.0003C23.901 72.7081 21.7061 74.9038 18.9979 74.9038H4.90093C2.19279 74.9038 -0.00195312 72.7081 -0.00195312 70.0003C-0.00195312 67.2925 2.19279 65.0968 4.90093 65.0968H18.9979C21.7061 65.0968 23.901 67.2925 23.901 70.0003Z" fill="url(#paint7_linear_3390_114413)"/>
</g>
<mask id="mask8_3390_114413" style="mask-type:luminance" maskUnits="userSpaceOnUse" x="2" y="78" width="24" height="14">
<path d="M25.478 81.9312C26.1788 84.5462 24.6266 87.2348 22.0109 87.9358L8.39403 91.5846C5.77855 92.2856 3.08977 90.7332 2.38897 88.1182C1.68817 85.5016 3.24036 82.813 5.85601 82.112L19.4729 78.4648C22.0885 77.7638 24.7772 79.3162 25.478 81.9312Z" fill="white"/>
</mask>
<g mask="url(#mask8_3390_114413)">
<path d="M25.478 81.9312C26.1788 84.5462 24.6266 87.2348 22.0109 87.9358L8.39403 91.5846C5.77855 92.2856 3.08977 90.7332 2.38897 88.1182C1.68817 85.5016 3.24036 82.813 5.85601 82.112L19.4729 78.4648C22.0885 77.7638 24.7772 79.3162 25.478 81.9312Z" fill="url(#paint8_linear_3390_114413)"/>
</g>
<mask id="mask9_3390_114413" style="mask-type:luminance" maskUnits="userSpaceOnUse" x="8" y="90" width="23" height="18">
<path d="M30.0775 93.0486C31.4316 95.3932 30.6282 98.3923 28.2827 99.7462L16.0749 106.794C13.7293 108.15 10.7305 107.345 9.37642 105C8.02235 102.656 8.82637 99.6566 11.1712 98.3027L23.3796 91.253C25.7247 89.8991 28.7234 90.7041 30.0775 93.0486Z" fill="white"/>
</mask>
<g mask="url(#mask9_3390_114413)">
<path d="M30.0775 93.0486C31.4316 95.3932 30.6282 98.3923 28.2827 99.7462L16.0749 106.794C13.7293 108.15 10.7305 107.345 9.37642 105C8.02235 102.656 8.82637 99.6566 11.1712 98.3027L23.3796 91.253C25.7247 89.8991 28.7234 90.7041 30.0775 93.0486Z" fill="url(#paint9_linear_3390_114413)"/>
</g>
<mask id="mask10_3390_114413" style="mask-type:luminance" maskUnits="userSpaceOnUse" x="19" y="101" width="20" height="20">
<path d="M37.4006 102.594C39.3161 104.51 39.3161 107.615 37.4006 109.529L27.4333 119.498C25.5179 121.412 22.4135 121.412 20.4986 119.498C18.5838 117.582 18.5838 114.477 20.4986 112.563L30.4665 102.594C32.3814 100.68 35.4858 100.68 37.4006 102.594Z" fill="white"/>
</mask>
<g mask="url(#mask10_3390_114413)">
<path d="M37.4006 102.594C39.3161 104.51 39.3161 107.615 37.4006 109.529L27.4333 119.498C25.5179 121.412 22.4135 121.412 20.4986 119.498C18.5838 117.582 18.5838 114.477 20.4986 112.563L30.4665 102.594C32.3814 100.68 35.4858 100.68 37.4006 102.594Z" fill="url(#paint10_linear_3390_114413)"/>
</g>
<mask id="mask11_3390_114413" style="mask-type:luminance" maskUnits="userSpaceOnUse" x="32" y="109" width="18" height="23">
<path d="M46.9512 109.921C49.2957 111.275 50.0991 114.274 48.7452 116.619L41.6972 128.827C40.3431 131.173 37.3444 131.976 34.9995 130.622C32.654 129.268 31.8506 126.269 33.2047 123.925L40.2532 111.715C41.6073 109.371 44.606 108.567 46.9512 109.921Z" fill="white"/>
</mask>
<g mask="url(#mask11_3390_114413)">
<path d="M46.9512 109.921C49.2957 111.275 50.0991 114.274 48.7452 116.619L41.6972 128.827C40.3431 131.173 37.3444 131.976 34.9995 130.622C32.654 129.268 31.8506 126.269 33.2047 123.925L40.2532 111.715C41.6073 109.371 44.606 108.567 46.9512 109.921Z" fill="url(#paint11_linear_3390_114413)"/>
</g>
<mask id="mask12_3390_114413" style="mask-type:luminance" maskUnits="userSpaceOnUse" x="48" y="114" width="14" height="24">
<path d="M58.0659 114.526C60.6809 115.227 62.2333 117.915 61.5323 120.532L57.8834 134.148C57.1825 136.765 54.4939 138.315 51.8789 137.616C49.2639 136.915 47.7115 134.226 48.4125 131.61L52.0597 117.994C52.7607 115.377 55.4493 113.825 58.0659 114.526Z" fill="white"/>
</mask>
<g mask="url(#mask12_3390_114413)">
<path d="M58.0659 114.526C60.6809 115.227 62.2333 117.915 61.5323 120.532L57.8834 134.148C57.1825 136.765 54.4939 138.315 51.8789 137.616C49.2639 136.915 47.7115 134.226 48.4125 131.61L52.0597 117.994C52.7607 115.377 55.4493 113.825 58.0659 114.526Z" fill="url(#paint12_linear_3390_114413)"/>
</g>
<mask id="mask13_3390_114413" style="mask-type:luminance" maskUnits="userSpaceOnUse" x="65" y="116" width="10" height="24">
<path d="M69.9973 116.097C72.7051 116.097 74.9008 118.291 74.9008 121V135.096C74.9008 137.804 72.7051 140 69.9973 140C67.2895 140 65.0938 137.804 65.0938 135.096V121C65.0938 118.291 67.2895 116.097 69.9973 116.097Z" fill="white"/>
</mask>
<g mask="url(#mask13_3390_114413)">
<path d="M69.9973 116.097C72.7051 116.097 74.9008 118.291 74.9008 121V135.096C74.9008 137.804 72.7051 140 69.9973 140C67.2895 140 65.0938 137.804 65.0938 135.096V121C65.0938 118.291 67.2895 116.097 69.9973 116.097Z" fill="url(#paint13_linear_3390_114413)"/>
</g>
<mask id="mask14_3390_114413" style="mask-type:luminance" maskUnits="userSpaceOnUse" x="78" y="114" width="14" height="24">
<path d="M81.9332 114.526C84.5482 113.825 87.2368 115.377 87.9378 117.994L91.5866 131.61C92.2876 134.226 90.7352 136.915 88.1186 137.616C85.5036 138.315 82.815 136.765 82.114 134.148L78.4652 120.532C77.7642 117.915 79.3166 115.227 81.9332 114.526Z" fill="white"/>
</mask>
<g mask="url(#mask14_3390_114413)">
<path d="M81.9332 114.526C84.5482 113.825 87.2368 115.377 87.9378 117.994L91.5866 131.61C92.2876 134.226 90.7352 136.915 88.1186 137.616C85.5036 138.315 82.815 136.765 82.114 134.148L78.4652 120.532C77.7642 117.915 79.3166 115.227 81.9332 114.526Z" fill="url(#paint14_linear_3390_114413)"/>
</g>
<mask id="mask15_3390_114413" style="mask-type:luminance" maskUnits="userSpaceOnUse" x="90" y="109" width="18" height="23">
<path d="M93.0431 109.921C95.3877 108.567 98.3868 109.371 99.7407 111.715L106.789 123.925C108.143 126.269 107.339 129.268 104.995 130.622C102.649 131.976 99.6495 131.173 98.2955 128.827L91.2475 116.619C89.8936 114.274 90.697 111.275 93.0431 109.921Z" fill="white"/>
</mask>
<g mask="url(#mask15_3390_114413)">
<path d="M93.0431 109.921C95.3877 108.567 98.3868 109.371 99.7407 111.715L106.789 123.925C108.143 126.269 107.339 129.268 104.995 130.622C102.649 131.976 99.6495 131.173 98.2955 128.827L91.2475 116.619C89.8936 114.274 90.697 111.275 93.0431 109.921Z" fill="url(#paint15_linear_3390_114413)"/>
</g>
<mask id="mask16_3390_114413" style="mask-type:luminance" maskUnits="userSpaceOnUse" x="101" y="101" width="20" height="20">
<path d="M102.595 102.594C104.509 100.68 107.614 100.68 109.529 102.594L119.496 112.563C121.412 114.477 121.412 117.582 119.496 119.498C117.582 121.412 114.478 121.412 112.564 119.498L102.595 109.529C100.679 107.615 100.679 104.51 102.595 102.594Z" fill="white"/>
</mask>
<g mask="url(#mask16_3390_114413)">
<path d="M102.595 102.594C104.509 100.68 107.614 100.68 109.529 102.594L119.496 112.563C121.412 114.477 121.412 117.582 119.496 119.498C117.582 121.412 114.478 121.412 112.564 119.498L102.595 109.529C100.679 107.615 100.679 104.51 102.595 102.594Z" fill="url(#paint16_linear_3390_114413)"/>
</g>
<mask id="mask17_3390_114413" style="mask-type:luminance" maskUnits="userSpaceOnUse" x="109" y="90" width="23" height="18">
<path d="M109.917 93.0486C111.271 90.7041 114.27 89.8991 116.617 91.253L128.824 98.3027C131.17 99.6566 131.974 102.656 130.62 105C129.264 107.345 126.267 108.15 123.921 106.794L111.713 99.7462C109.367 98.3923 108.564 95.3932 109.917 93.0486Z" fill="white"/>
</mask>
<g mask="url(#mask17_3390_114413)">
<path d="M109.917 93.0486C111.271 90.7041 114.27 89.8991 116.617 91.253L128.824 98.3027C131.17 99.6566 131.974 102.656 130.62 105C129.264 107.345 126.267 108.15 123.921 106.794L111.713 99.7462C109.367 98.3923 108.564 95.3932 109.917 93.0486Z" fill="url(#paint17_linear_3390_114413)"/>
</g>
<mask id="mask18_3390_114413" style="mask-type:luminance" maskUnits="userSpaceOnUse" x="114" y="78" width="24" height="14">
<path d="M114.52 81.9312C115.221 79.3162 117.909 77.7638 120.524 78.4648L134.142 82.112C136.757 82.813 138.309 85.5016 137.608 88.1182C136.907 90.7332 134.219 92.2856 131.604 91.5846L117.986 87.9358C115.371 87.2348 113.819 84.5462 114.52 81.9312Z" fill="white"/>
</mask>
<g mask="url(#mask18_3390_114413)">
<path d="M114.52 81.9312C115.221 79.3162 117.909 77.7638 120.524 78.4648L134.142 82.112C136.757 82.813 138.309 85.5016 137.608 88.1182C136.907 90.7332 134.219 92.2856 131.604 91.5846L117.986 87.9358C115.371 87.2348 113.819 84.5462 114.52 81.9312Z" fill="url(#paint18_linear_3390_114413)"/>
</g>
<mask id="mask19_3390_114413" style="mask-type:luminance" maskUnits="userSpaceOnUse" x="116" y="65" width="24" height="10">
<path d="M116.096 70.0003C116.096 67.2925 118.291 65.0968 120.999 65.0968H135.097C137.805 65.0968 140 67.2925 140 70.0003C140 72.7081 137.805 74.9038 135.097 74.9038H120.999C118.291 74.9038 116.096 72.7081 116.096 70.0003Z" fill="white"/>
</mask>
<g mask="url(#mask19_3390_114413)">
<path d="M116.096 70.0003C116.096 67.2925 118.291 65.0968 120.999 65.0968H135.097C137.805 65.0968 140 67.2925 140 70.0003C140 72.7081 137.805 74.9038 135.097 74.9038H120.999C118.291 74.9038 116.096 72.7081 116.096 70.0003Z" fill="url(#paint19_linear_3390_114413)"/>
</g>
<mask id="mask20_3390_114413" style="mask-type:luminance" maskUnits="userSpaceOnUse" x="114" y="48" width="24" height="14">
<path d="M114.52 58.0692C113.819 55.4542 115.371 52.7656 117.986 52.0646L131.604 48.4158C134.219 47.7149 136.907 49.2672 137.608 51.8822C138.309 54.4988 136.757 57.1874 134.142 57.8884L120.524 61.5373C117.909 62.2382 115.221 60.6858 114.52 58.0692Z" fill="white"/>
</mask>
<g mask="url(#mask20_3390_114413)">
<path d="M114.52 58.0692C113.819 55.4542 115.371 52.7656 117.986 52.0646L131.604 48.4158C134.219 47.7149 136.907 49.2672 137.608 51.8822C138.309 54.4988 136.757 57.1874 134.142 57.8884L120.524 61.5373C117.909 62.2382 115.221 60.6858 114.52 58.0692Z" fill="url(#paint20_linear_3390_114413)"/>
</g>
<mask id="mask21_3390_114413" style="mask-type:luminance" maskUnits="userSpaceOnUse" x="109" y="32" width="23" height="18">
<path d="M109.917 46.9515C108.564 44.607 109.367 41.6079 111.713 40.254L123.921 33.206C126.267 31.852 129.264 32.6554 130.62 35C131.974 37.3461 131.17 40.3436 128.824 41.6975L116.617 48.7471C114.27 50.101 111.271 49.2976 109.917 46.9515Z" fill="white"/>
</mask>
<g mask="url(#mask21_3390_114413)">
<path d="M109.917 46.9515C108.564 44.607 109.367 41.6079 111.713 40.254L123.921 33.206C126.267 31.852 129.264 32.6554 130.62 35C131.974 37.3461 131.17 40.3436 128.824 41.6975L116.617 48.7471C114.27 50.101 111.271 49.2976 109.917 46.9515Z" fill="url(#paint21_linear_3390_114413)"/>
</g>
<mask id="mask22_3390_114413" style="mask-type:luminance" maskUnits="userSpaceOnUse" x="101" y="19" width="20" height="20">
<path d="M102.595 37.4053C100.679 35.4896 100.679 32.3849 102.595 30.4709L112.564 20.5022C114.478 18.5882 117.582 18.5882 119.496 20.5022C121.412 22.4179 121.412 25.5225 119.496 27.4366L109.529 37.4053C107.614 39.3193 104.509 39.3193 102.595 37.4053Z" fill="white"/>
</mask>
<g mask="url(#mask22_3390_114413)">
<path d="M102.595 37.4053C100.679 35.4896 100.679 32.3849 102.595 30.4709L112.564 20.5022C114.478 18.5882 117.582 18.5882 119.496 20.5022C121.412 22.4179 121.412 25.5225 119.496 27.4366L109.529 37.4053C107.614 39.3193 104.509 39.3193 102.595 37.4053Z" fill="url(#paint22_linear_3390_114413)"/>
</g>
<mask id="mask23_3390_114413" style="mask-type:luminance" maskUnits="userSpaceOnUse" x="90" y="8" width="18" height="23">
<path d="M93.0431 30.0791C90.697 28.7252 89.8936 25.7261 91.2475 23.3815L98.2955 11.174C99.6495 8.82781 102.649 8.02439 104.995 9.37831C107.339 10.7322 108.143 13.7313 106.789 16.0759L99.7407 28.2851C98.3868 30.6296 95.3877 31.433 93.0431 30.0791Z" fill="white"/>
</mask>
<g mask="url(#mask23_3390_114413)">
<path d="M93.0431 30.0791C90.697 28.7252 89.8936 25.7261 91.2475 23.3815L98.2955 11.174C99.6495 8.82781 102.649 8.02439 104.995 9.37831C107.339 10.7322 108.143 13.7313 106.789 16.0759L99.7407 28.2851C98.3868 30.6296 95.3877 31.433 93.0431 30.0791Z" fill="url(#paint23_linear_3390_114413)"/>
<path d="M93.0431 30.0791C90.697 28.7252 89.8936 25.7261 91.2475 23.3815L98.2955 11.174C99.6495 8.82781 102.649 8.02439 104.995 9.37831C107.339 10.7322 108.143 13.7313 106.789 16.0759L99.7407 28.2851C98.3868 30.6296 95.3877 31.433 93.0431 30.0791Z" fill="url(#paint24_linear_3390_114413)"/>
</g>
<mask id="mask24_3390_114413" style="mask-type:luminance" maskUnits="userSpaceOnUse" x="78" y="2" width="14" height="24">
<path d="M81.9332 25.4747C79.3166 24.7738 77.7642 22.0852 78.4652 19.4702L82.114 5.85265C82.815 3.23765 85.5036 1.68527 88.1186 2.38623C90.7352 3.08559 92.2876 5.77581 91.5866 8.39081L87.9378 22.0083C87.2368 24.6233 84.5482 26.1757 81.9332 25.4747Z" fill="white"/>
</mask>
<g mask="url(#mask24_3390_114413)">
<path d="M81.9332 25.4747C79.3166 24.7738 77.7642 22.0852 78.4652 19.4702L82.114 5.85265C82.815 3.23765 85.5036 1.68527 88.1186 2.38623C90.7352 3.08559 92.2876 5.77581 91.5866 8.39081L87.9378 22.0083C87.2368 24.6233 84.5482 26.1757 81.9332 25.4747Z" fill="url(#paint25_linear_3390_114413)"/>
</g>
<defs>
<linearGradient id="paint0_linear_3390_114413" x1="69.9993" y1="50.6756" x2="69.9993" y2="86.2325" gradientUnits="userSpaceOnUse">
<stop stop-color="#F1416F"/>
<stop offset="0.00406504" stop-color="#F1416F"/>
<stop offset="1" stop-color="#FF5C97"/>
</linearGradient>
<linearGradient id="paint1_linear_3390_114413" x1="69.9973" y1="0.721929" x2="69.9973" y2="21.385" gradientUnits="userSpaceOnUse">
<stop stop-color="#F1416F"/>
<stop offset="0.00406504" stop-color="#F1416F"/>
<stop offset="1" stop-color="#FF5C97"/>
</linearGradient>
<linearGradient id="paint2_linear_3390_114413" x1="52.0661" y1="3.08239" x2="57.4141" y2="23.0412" gradientUnits="userSpaceOnUse">
<stop stop-color="#F1416F"/>
<stop offset="0.00406504" stop-color="#F1416F"/>
<stop offset="1" stop-color="#FF5C97"/>
</linearGradient>
<linearGradient id="paint3_linear_3390_114413" x1="35.3602" y1="10.0041" x2="45.6917" y2="27.8987" gradientUnits="userSpaceOnUse">
<stop stop-color="#F1416F"/>
<stop offset="0.00406504" stop-color="#F1416F"/>
<stop offset="1" stop-color="#FF5C97"/>
</linearGradient>
<linearGradient id="paint4_linear_3390_114413" x1="21.0091" y1="21.0127" x2="35.62" y2="35.6236" gradientUnits="userSpaceOnUse">
<stop stop-color="#F1416F"/>
<stop offset="0.00406504" stop-color="#F1416F"/>
<stop offset="1" stop-color="#FF5C97"/>
</linearGradient>
<linearGradient id="paint5_linear_3390_114413" x1="10.002" y1="35.3616" x2="27.8967" y2="45.6931" gradientUnits="userSpaceOnUse">
<stop stop-color="#F1416F"/>
<stop offset="0.00406504" stop-color="#F1416F"/>
<stop offset="1" stop-color="#FF5C97"/>
</linearGradient>
<linearGradient id="paint6_linear_3390_114413" x1="3.08641" y1="52.0695" x2="23.0452" y2="57.4174" gradientUnits="userSpaceOnUse">
<stop stop-color="#F1416F"/>
<stop offset="0.00406504" stop-color="#F1416F"/>
<stop offset="1" stop-color="#FF5C97"/>
</linearGradient>
<linearGradient id="paint7_linear_3390_114413" x1="0.719813" y1="70.0003" x2="21.3828" y2="70.0003" gradientUnits="userSpaceOnUse">
<stop stop-color="#F1416F"/>
<stop offset="0.00406504" stop-color="#F1416F"/>
<stop offset="0.96" stop-color="#FF5C97"/>
<stop offset="1" stop-color="#FF5C97"/>
</linearGradient>
<linearGradient id="paint8_linear_3390_114413" x1="3.08641" y1="87.931" x2="23.0453" y2="82.583" gradientUnits="userSpaceOnUse">
<stop stop-color="#F1416F"/>
<stop offset="0.00406504" stop-color="#F1416F"/>
<stop offset="1" stop-color="#FF5C97"/>
</linearGradient>
<linearGradient id="paint9_linear_3390_114413" x1="10.002" y1="104.639" x2="27.8967" y2="94.307" gradientUnits="userSpaceOnUse">
<stop stop-color="#F1416F"/>
<stop offset="0.00406504" stop-color="#F1416F"/>
<stop offset="1" stop-color="#FF5C97"/>
</linearGradient>
<linearGradient id="paint10_linear_3390_114413" x1="21.0091" y1="118.987" x2="35.6201" y2="104.376" gradientUnits="userSpaceOnUse">
<stop stop-color="#F1416F"/>
<stop offset="0.00406504" stop-color="#F1416F"/>
<stop offset="1" stop-color="#FF5C97"/>
</linearGradient>
<linearGradient id="paint11_linear_3390_114413" x1="35.3602" y1="129.996" x2="45.6917" y2="112.102" gradientUnits="userSpaceOnUse">
<stop stop-color="#F1416F"/>
<stop offset="0.00406504" stop-color="#F1416F"/>
<stop offset="1" stop-color="#FF5C97"/>
</linearGradient>
<linearGradient id="paint12_linear_3390_114413" x1="52.0661" y1="136.918" x2="57.4141" y2="116.959" gradientUnits="userSpaceOnUse">
<stop stop-color="#F1416F"/>
<stop offset="0.00406504" stop-color="#F1416F"/>
<stop offset="1" stop-color="#FF5C97"/>
</linearGradient>
<linearGradient id="paint13_linear_3390_114413" x1="69.9973" y1="139.278" x2="69.9973" y2="118.615" gradientUnits="userSpaceOnUse">
<stop stop-color="#F1416F"/>
<stop offset="0.00406504" stop-color="#F1416F"/>
<stop offset="1" stop-color="#FF5C97"/>
</linearGradient>
<linearGradient id="paint14_linear_3390_114413" x1="87.933" y1="136.918" x2="82.585" y2="116.959" gradientUnits="userSpaceOnUse">
<stop stop-color="#F1416F"/>
<stop offset="0.00406504" stop-color="#F1416F"/>
<stop offset="1" stop-color="#FF5C97"/>
</linearGradient>
<linearGradient id="paint15_linear_3390_114413" x1="104.633" y1="129.996" x2="94.3015" y2="112.102" gradientUnits="userSpaceOnUse">
<stop stop-color="#F1416F"/>
<stop offset="0.00406504" stop-color="#F1416F"/>
<stop offset="1" stop-color="#FF5C97"/>
</linearGradient>
<linearGradient id="paint16_linear_3390_114413" x1="118.986" y1="118.987" x2="102.405" y2="103.008" gradientUnits="userSpaceOnUse">
<stop stop-color="#FF6099"/>
<stop offset="1" stop-color="white"/>
</linearGradient>
<linearGradient id="paint17_linear_3390_114413" x1="134.212" y1="107.209" x2="114.757" y2="88.1483" gradientUnits="userSpaceOnUse">
<stop stop-color="#FF6099"/>
<stop offset="1" stop-color="white"/>
</linearGradient>
<linearGradient id="paint18_linear_3390_114413" x1="145.615" y1="91.6052" x2="126.226" y2="70.9236" gradientUnits="userSpaceOnUse">
<stop stop-color="#FF6099"/>
<stop offset="1" stop-color="white"/>
</linearGradient>
<linearGradient id="paint19_linear_3390_114413" x1="148.016" y1="70.0001" x2="131.601" y2="54.4019" gradientUnits="userSpaceOnUse">
<stop stop-color="#FF6099"/>
<stop offset="1" stop-color="white"/>
</linearGradient>
<linearGradient id="paint20_linear_3390_114413" x1="143.214" y1="50.1957" x2="117.877" y2="44.1228" gradientUnits="userSpaceOnUse">
<stop stop-color="#FF6099"/>
<stop offset="1" stop-color="white"/>
</linearGradient>
<linearGradient id="paint21_linear_3390_114413" x1="135.413" y1="32.7914" x2="107.584" y2="40.2742" gradientUnits="userSpaceOnUse">
<stop stop-color="#FF6099"/>
<stop offset="1" stop-color="white"/>
</linearGradient>
<linearGradient id="paint22_linear_3390_114413" x1="124.01" y1="14.7872" x2="102.76" y2="37.3614" gradientUnits="userSpaceOnUse">
<stop stop-color="#FF6099"/>
<stop offset="1" stop-color="white"/>
</linearGradient>
<linearGradient id="paint23_linear_3390_114413" x1="104.633" y1="10.0041" x2="94.3015" y2="27.8987" gradientUnits="userSpaceOnUse">
<stop stop-color="#872548"/>
<stop offset="0.00406504" stop-color="#872548"/>
<stop offset="1" stop-color="#4C0E25"/>
</linearGradient>
<linearGradient id="paint24_linear_3390_114413" x1="107.206" y1="5.78537" x2="99.3788" y2="32.3301" gradientUnits="userSpaceOnUse">
<stop stop-color="#FF6099"/>
<stop offset="1" stop-color="white"/>
</linearGradient>
<linearGradient id="paint25_linear_3390_114413" x1="89.2025" y1="-3.2169" x2="95.7744" y2="22.0002" gradientUnits="userSpaceOnUse">
<stop stop-color="#FF6099"/>
<stop offset="1" stop-color="white"/>
</linearGradient>
</defs>
</svg>
