<svg width="20" height="23" viewBox="0 0 20 23" fill="none" xmlns="http://www.w3.org/2000/svg">
<path d="M16.1967 21.8002C14.9717 22.9877 13.6342 22.8002 12.3467 22.2377C10.9842 21.6627 9.73424 21.6377 8.29674 22.2377C6.49674 23.0127 5.54674 22.7877 4.47174 21.8002C-1.62826 15.5127 -0.728261 5.9377 6.19674 5.5877C7.88424 5.6752 9.05924 6.51269 10.0467 6.5877C11.5217 6.28769 12.9342 5.4252 14.5092 5.5377C16.3967 5.6877 17.8217 6.4377 18.7592 7.78769C14.8592 10.1252 15.7842 15.2627 19.3592 16.7002C18.6467 18.5752 17.7217 20.4377 16.1842 21.8127L16.1967 21.8002ZM9.92174 5.5127C9.73424 2.7252 11.9967 0.425195 14.5967 0.200195C14.9592 3.4252 11.6717 5.8252 9.92174 5.5127Z" fill="#090909"/>
</svg>
