<svg width="23" height="18" viewBox="0 0 23 18" fill="none" xmlns="http://www.w3.org/2000/svg">
<path d="M0.921353 5.75C1.05224 2.69035 3.57414 0.25 6.66602 0.25H16.666C19.7579 0.25 22.2798 2.69035 22.4107 5.75H0.921353Z" fill="#090909"/>
<path fill-rule="evenodd" clip-rule="evenodd" d="M22.416 7.25V12C22.416 15.1756 19.8417 17.75 16.666 17.75H6.66602C3.49038 17.75 0.916016 15.1756 0.916016 12V7.25H22.416ZM5.66602 11.75C5.2518 11.75 4.91602 12.0858 4.91602 12.5C4.91602 12.9142 5.2518 13.25 5.66602 13.25H10.666C11.0802 13.25 11.416 12.9142 11.416 12.5C11.416 12.0858 11.0802 11.75 10.666 11.75H5.66602Z" fill="#090909"/>
</svg>
