<svg width="33" height="23" viewBox="0 0 33 23" fill="none" xmlns="http://www.w3.org/2000/svg">
<g clip-path="url(#clip0_1858_107129)">
<path d="M0 3.25C0 1.73122 1.23122 0.5 2.75 0.5H30.25C31.7688 0.5 33 1.73122 33 3.25V19.75C33 21.2688 31.7688 22.5 30.25 22.5H2.75C1.23122 22.5 0 21.2688 0 19.75V3.25Z" fill="#D8E3F3"/>
<path d="M28.4005 7.39941H26.6717C26.149 7.39941 25.747 7.56023 25.5058 8.08289L22.209 15.6012H24.5409C24.5409 15.6012 24.9429 14.5961 25.0233 14.3548C25.2645 14.3548 27.5562 14.3548 27.8778 14.3548C27.9583 14.6363 28.1593 15.561 28.1593 15.561H30.2499L28.4005 7.39941ZM25.6666 12.6662C25.8676 12.1838 26.5511 10.3746 26.5511 10.3746C26.5511 10.4148 26.7521 9.8921 26.8325 9.61067L26.9933 10.3344C26.9933 10.3344 27.4356 12.3044 27.516 12.7064H25.6666V12.6662Z" fill="#3362AB"/>
<path d="M22.3691 12.907C22.3691 14.5956 20.8413 15.7213 18.4693 15.7213C17.4641 15.7213 16.4992 15.5203 15.9766 15.2791L16.2982 13.4296L16.5796 13.5503C17.3033 13.8719 17.7858 13.9925 18.6703 13.9925C19.3135 13.9925 19.997 13.7513 19.997 13.1884C19.997 12.8266 19.7156 12.5853 18.8311 12.1833C17.9868 11.7812 16.8611 11.138 16.8611 9.97203C16.8611 8.36385 18.429 7.27832 20.6403 7.27832C21.4846 7.27832 22.2083 7.43914 22.6505 7.64016L22.3289 9.40917L22.1681 9.24835C21.766 9.08753 21.2434 8.92671 20.4795 8.92671C19.6352 8.96692 19.2331 9.32876 19.2331 9.6504C19.2331 10.0122 19.7156 10.2937 20.4795 10.6555C21.766 11.2586 22.3691 11.9421 22.3691 12.907Z" fill="#3362AB"/>
<path d="M2.75 7.47918L2.7902 7.31836H6.24781C6.73026 7.31836 7.0921 7.47918 7.21272 8.00184L7.97661 11.6203C7.21272 9.69044 5.44371 8.12245 2.75 7.47918Z" fill="#F9B50B"/>
<path d="M12.8411 7.39909L9.34325 15.5606H6.97117L4.96094 8.72585C6.40831 9.65055 7.61445 11.0979 8.0567 12.103L8.29793 12.9473L10.469 7.35889H12.8411V7.39909Z" fill="#3362AB"/>
<path d="M13.7665 7.35889H15.9778L14.5706 15.5606H12.3594L13.7665 7.35889Z" fill="#3362AB"/>
</g>
<defs>
<clipPath id="clip0_1858_107129">
<rect width="33" height="22" fill="white" transform="translate(0 0.5)"/>
</clipPath>
</defs>
</svg>
