<svg width="49" height="48" viewBox="0 0 49 48" fill="none" xmlns="http://www.w3.org/2000/svg">
<rect x="0.333008" width="48" height="48" rx="12" fill="#F7F7FF"/>
<path d="M24.333 34C29.857 34 34.333 29.524 34.333 24C34.333 18.476 29.857 14 24.333 14C18.809 14 14.333 18.476 14.333 24C14.333 29.524 18.809 34 24.333 34ZM23.2657 18.6827V17.875C23.2657 17.4327 23.6215 17.0769 24.0638 17.0769H24.5974C25.0397 17.0769 25.3955 17.4327 25.3955 17.875V18.6923C26.1407 18.7308 26.8619 18.9856 27.4628 19.4327C27.732 19.6298 27.7609 20.024 27.5205 20.2548L26.7369 21C26.5542 21.1779 26.2801 21.1827 26.0638 21.0481C25.8042 20.8846 25.5157 20.8029 25.208 20.8029H23.3378C22.9051 20.8029 22.5542 21.1971 22.5542 21.6827C22.5542 22.0769 22.7945 22.4279 23.1359 22.5288L26.1311 23.4279C27.3667 23.7981 28.232 24.9856 28.232 26.3173C28.232 27.9519 26.9628 29.274 25.3907 29.3173V30.125C25.3907 30.5673 25.0349 30.9231 24.5926 30.9231H24.059C23.6167 30.9231 23.2609 30.5673 23.2609 30.125V29.3077C22.5157 29.2692 21.7945 29.0144 21.1936 28.5673C20.9244 28.3702 20.8955 27.976 21.1359 27.7452L21.9195 27C22.1022 26.8221 22.3763 26.8173 22.5926 26.9519C22.8522 27.1154 23.1407 27.1971 23.4484 27.1971H25.3186C25.7513 27.1971 26.1022 26.8029 26.1022 26.3173C26.1022 25.9231 25.8619 25.5721 25.5205 25.4712L22.5253 24.5721C21.2897 24.2019 20.4244 23.0144 20.4244 21.6827C20.4292 20.0481 21.6936 18.726 23.2657 18.6827Z" fill="#6363E6"/>
</svg>
            