<svg width="49" height="48" viewBox="0 0 49 48" fill="none" xmlns="http://www.w3.org/2000/svg">
<rect x="0.666016" width="48" height="48" rx="12" fill="#F7F7FF"/>
<path d="M30.392 25.02L26.666 28H21.666V27H25.731C25.8215 27 25.9102 26.9754 25.9878 26.9289C26.0654 26.8824 26.1289 26.8157 26.1716 26.736C26.2142 26.6563 26.2345 26.5664 26.2302 26.4761C26.2259 26.3858 26.1971 26.2983 26.147 26.223L25.259 24.891C25.0768 24.6168 24.8297 24.392 24.5395 24.2365C24.2493 24.081 23.9252 23.9998 23.596 24H15.666C15.4008 24 15.1464 24.1054 14.9589 24.2929C14.7714 24.4804 14.666 24.7348 14.666 25V31C14.666 31.5304 14.8767 32.0391 15.2518 32.4142C15.6269 32.7893 16.1356 33 16.666 33H26.305C26.7326 33.0001 27.1553 32.9088 27.5447 32.7322C27.9342 32.5556 28.2814 32.2977 28.563 31.976L34.666 25L33.214 24.516C32.739 24.3576 32.2318 24.3208 31.7389 24.4089C31.2459 24.4969 30.7829 24.707 30.392 25.02ZM31.924 19.39C32.375 18.925 32.654 18.282 32.654 17.572C32.654 16.862 32.375 16.219 31.924 15.754C31.6959 15.516 31.4221 15.3265 31.119 15.1969C30.8159 15.0674 30.4897 15.0004 30.16 15C30.16 15 28.916 14.997 27.666 16.286C26.416 14.997 25.172 15 25.172 15C24.8425 15.0004 24.5164 15.0673 24.2133 15.1967C23.9102 15.3261 23.6363 15.5153 23.408 15.753C22.957 16.219 22.678 16.861 22.678 17.571C22.678 18.281 22.957 18.925 23.408 19.389L27.666 24L31.924 19.39Z" fill="#6363E6"/>
</svg>
