<svg width="106" height="22" viewBox="0 0 106 22" fill="none" xmlns="http://www.w3.org/2000/svg">
<mask id="mask0_3390_138140" style="mask-type:alpha" maskUnits="userSpaceOnUse" x="0" y="0" width="107" height="22">
<path d="M100.81 8.38465C101.648 8.38465 102.466 8.55972 103.263 8.90986C104.06 9.26 104.714 9.82125 105.226 10.5936C105.747 11.3557 106.008 12.3495 106.008 13.575V21.4376H102.711V14.1774C102.711 13.0343 102.45 12.195 101.929 11.6595C101.418 11.1137 100.738 10.8408 99.8898 10.8408C99.3276 10.8408 98.7859 11.0004 98.2646 11.3196C97.7432 11.6389 97.3139 12.0714 96.9766 12.6172C96.6495 13.163 96.486 13.7912 96.486 14.5018V21.4376H93.1895V0.182129H96.486V10.8871C96.578 10.537 96.8233 10.1714 97.2219 9.79036C97.6308 9.39903 98.147 9.06948 98.7705 8.80173C99.3941 8.52368 100.074 8.38465 100.81 8.38465Z" fill="url(#paint0_linear_3390_138140)"/>
<path d="M87.1943 21.4373V19.0893C87.1125 19.3364 86.8774 19.6763 86.489 20.1088C86.1108 20.5413 85.5895 20.9326 84.9251 21.2828C84.2709 21.6329 83.494 21.808 82.5945 21.808C81.419 21.808 80.361 21.5248 79.4206 20.9584C78.4802 20.392 77.7392 19.6042 77.1974 18.595C76.6556 17.5857 76.3848 16.422 76.3848 15.1039C76.3848 13.7857 76.6556 12.622 77.1974 11.6128C77.7392 10.6035 78.4802 9.81573 79.4206 9.24933C80.361 8.67263 81.419 8.38428 82.5945 8.38428C83.4736 8.38428 84.2351 8.53875 84.8791 8.8477C85.523 9.15664 86.0392 9.51193 86.4277 9.91356C86.8263 10.3152 87.0716 10.6653 87.1636 10.964V8.75501H90.4141V21.4373H87.1943ZM79.62 15.1039C79.62 15.9174 79.7988 16.628 80.1566 17.2356C80.5144 17.8432 80.9795 18.3118 81.5519 18.6413C82.1345 18.9708 82.758 19.1356 83.4225 19.1356C84.138 19.1356 84.7717 18.9657 85.3237 18.6258C85.8859 18.286 86.3254 17.8174 86.6423 17.2201C86.9694 16.6125 87.133 15.9071 87.133 15.1039C87.133 14.3006 86.9694 13.6003 86.6423 13.003C86.3254 12.3954 85.8859 11.9217 85.3237 11.5819C84.7717 11.2317 84.138 11.0567 83.4225 11.0567C82.758 11.0567 82.1345 11.2266 81.5519 11.5664C80.9795 11.896 80.5144 12.3645 80.1566 12.9721C79.7988 13.5797 79.62 14.2903 79.62 15.1039Z" fill="url(#paint1_linear_3390_138140)"/>
<path d="M69.3162 8.38428C70.1646 8.38428 70.9875 8.55935 71.7848 8.90949C72.5821 9.25963 73.2363 9.82088 73.7474 10.5932C74.2687 11.3553 74.5293 12.3491 74.5293 13.5746V21.4373H71.2328V14.177C71.2328 13.0339 70.9619 12.1946 70.4202 11.6591C69.8886 11.1133 69.1987 10.8404 68.3503 10.8404C67.7881 10.8404 67.2514 11 66.7403 11.3193C66.2293 11.6385 65.8102 12.071 65.4831 12.6168C65.1662 13.1626 65.0077 13.7908 65.0077 14.5014V21.4373H61.7266V8.75501H65.0077V10.8867C65.0997 10.5366 65.3451 10.171 65.7437 9.78998C66.1526 9.39865 66.6688 9.06911 67.2923 8.80136C67.9158 8.5233 68.5905 8.38428 69.3162 8.38428Z" fill="url(#paint2_linear_3390_138140)"/>
<path fill-rule="evenodd" clip-rule="evenodd" d="M59.0354 2.87066C58.727 3.08412 58.3536 3.20905 57.9512 3.20905C56.8927 3.20905 56.0346 2.34455 56.0346 1.27813C56.0346 1.21761 56.0374 1.15774 56.0428 1.09863C55.8692 1.19567 55.7067 1.32243 55.5553 1.47892C55.1669 1.88055 54.9727 2.35942 54.9727 2.91552C54.9727 3.47162 55.1669 3.95049 55.5553 4.35212C55.9539 4.75375 56.4293 4.95456 56.9812 4.95456C57.5537 4.95456 58.0392 4.75375 58.4378 4.35212C58.8365 3.95049 59.0358 3.47162 59.0358 2.91552C59.0358 2.9005 59.0357 2.88555 59.0354 2.87066ZM55.31 8.7546V21.4368H58.5758V8.7546H55.31Z" fill="url(#paint3_linear_3390_138140)"/>
<path d="M44.8025 21.8084C43.6168 21.8084 42.569 21.5252 41.6593 20.9588C40.7496 20.3924 40.034 19.6046 39.5127 18.5953C39.0016 17.5861 38.7461 16.4224 38.7461 15.1042C38.7461 13.7861 39.0016 12.6224 39.5127 11.6131C40.034 10.6039 40.7496 9.8161 41.6593 9.2497C42.569 8.673 43.6168 8.38465 44.8025 8.38465C45.6816 8.38465 46.4635 8.53913 47.1484 8.84807C47.8332 9.14672 48.3801 9.49686 48.789 9.89849C49.1978 10.3001 49.4381 10.6554 49.5096 10.9644V0.182129H52.7908V21.4376H49.5556V19.0896C49.4125 19.4501 49.1212 19.8414 48.6817 20.2636C48.2421 20.6859 47.685 21.0515 47.0104 21.3604C46.346 21.659 45.61 21.8084 44.8025 21.8084ZM45.6458 19.136C46.3613 19.136 47.0104 18.9661 47.593 18.6262C48.1757 18.2864 48.6408 17.8178 48.9883 17.2205C49.3358 16.6129 49.5096 15.9075 49.5096 15.1042C49.5096 14.301 49.3358 13.6007 48.9883 13.0034C48.6408 12.3958 48.1757 11.9221 47.593 11.5822C47.0104 11.2321 46.3613 11.057 45.6458 11.057C44.9916 11.057 44.3834 11.227 43.8212 11.5668C43.2692 11.8963 42.8246 12.3649 42.4873 12.9725C42.1499 13.5801 41.9813 14.2907 41.9813 15.1042C41.9813 15.9178 42.1499 16.6284 42.4873 17.236C42.8246 17.8436 43.2692 18.3121 43.8212 18.6417C44.3834 18.9712 44.9916 19.136 45.6458 19.136Z" fill="url(#paint4_linear_3390_138140)"/>
<path d="M33.3173 21.4373V19.0893C33.2356 19.3364 33.0005 19.6763 32.612 20.1088C32.2338 20.5413 31.7125 20.9326 31.0481 21.2828C30.3939 21.6329 29.617 21.808 28.7175 21.808C27.542 21.808 26.4841 21.5248 25.5437 20.9584C24.6033 20.392 23.8622 19.6042 23.3204 18.595C22.7787 17.5857 22.5078 16.422 22.5078 15.1039C22.5078 13.7857 22.7787 12.622 23.3204 11.6128C23.8622 10.6035 24.6033 9.81573 25.5437 9.24933C26.4841 8.67263 27.542 8.38428 28.7175 8.38428C29.5966 8.38428 30.3581 8.53875 31.0021 8.8477C31.6461 9.15664 32.1623 9.51193 32.5507 9.91356C32.9493 10.3152 33.1947 10.6653 33.2867 10.964V8.75501H36.5372V21.4373H33.3173ZM25.743 15.1039C25.743 15.9174 25.9219 16.628 26.2796 17.2356C26.6374 17.8432 27.1025 18.3118 27.6749 18.6413C28.2576 18.9708 28.8811 19.1356 29.5455 19.1356C30.261 19.1356 30.8948 18.9657 31.4467 18.6258C32.0089 18.286 32.4485 17.8174 32.7654 17.2201C33.0924 16.6125 33.256 15.9071 33.256 15.1039C33.256 14.3006 33.0924 13.6003 32.7654 13.003C32.4485 12.3954 32.0089 11.9217 31.4467 11.5819C30.8948 11.2317 30.261 11.0567 29.5455 11.0567C28.8811 11.0567 28.2576 11.2266 27.6749 11.5664C27.1025 11.896 26.6374 12.3645 26.2796 12.9721C25.9219 13.5797 25.743 14.2903 25.743 15.1039Z" fill="url(#paint5_linear_3390_138140)"/>
<path d="M19.8805 1.04639V21.4368H16.6606V7.54971L16.8139 4.93911L16.2006 7.8741L11.7695 20.1393H8.59564L4.17984 7.8741L3.56653 4.93911L3.71986 7.54971V21.4368H0.5V1.04639H4.90047L9.96024 16.3083L10.1902 17.5287L10.4049 16.3083L15.4953 1.04639H19.8805Z" fill="url(#paint6_linear_3390_138140)"/>
</mask>
<g mask="url(#mask0_3390_138140)">
<rect x="0.5" y="0.182617" width="105.488" height="22.2215" fill="url(#paint7_linear_3390_138140)"/>
</g>
<defs>
<linearGradient id="paint0_linear_3390_138140" x1="93.1312" y1="12.5268" x2="106.414" y2="12.5411" gradientUnits="userSpaceOnUse">
<stop stop-color="#20A746"/>
<stop offset="1" stop-color="#87CCF3"/>
</linearGradient>
<linearGradient id="paint1_linear_3390_138140" x1="76.321" y1="16.1804" x2="90.8589" y2="16.2076" gradientUnits="userSpaceOnUse">
<stop stop-color="#20A746"/>
<stop offset="1" stop-color="#87CCF3"/>
</linearGradient>
<linearGradient id="paint2_linear_3390_138140" x1="61.6684" y1="15.9651" x2="74.9352" y2="15.9883" gradientUnits="userSpaceOnUse">
<stop stop-color="#20A746"/>
<stop offset="1" stop-color="#87CCF3"/>
</linearGradient>
<linearGradient id="paint3_linear_3390_138140" x1="54.9542" y1="12.9106" x2="59.1646" y2="12.9121" gradientUnits="userSpaceOnUse">
<stop stop-color="#20A746"/>
<stop offset="1" stop-color="#87CCF3"/>
</linearGradient>
<linearGradient id="paint4_linear_3390_138140" x1="38.6823" y1="12.7421" x2="53.2361" y2="12.759" gradientUnits="userSpaceOnUse">
<stop stop-color="#20A746"/>
<stop offset="1" stop-color="#87CCF3"/>
</linearGradient>
<linearGradient id="paint5_linear_3390_138140" x1="22.4441" y1="16.1804" x2="36.982" y2="16.2076" gradientUnits="userSpaceOnUse">
<stop stop-color="#20A746"/>
<stop offset="1" stop-color="#87CCF3"/>
</linearGradient>
<linearGradient id="paint6_linear_3390_138140" x1="0.411923" y1="12.8887" x2="20.4949" y2="12.9227" gradientUnits="userSpaceOnUse">
<stop stop-color="#20A746"/>
<stop offset="1" stop-color="#87CCF3"/>
</linearGradient>
<linearGradient id="paint7_linear_3390_138140" x1="0.5" y1="11.2934" x2="105.994" y2="11.8132" gradientUnits="userSpaceOnUse">
<stop stop-color="#6363E6"/>
<stop offset="1" stop-color="#59C9F9"/>
</linearGradient>
</defs>
</svg>
