<svg width="108" height="41" viewBox="0 0 108 41" fill="none" xmlns="http://www.w3.org/2000/svg">
<mask id="mask0_673_6362" style="mask-type:alpha" maskUnits="userSpaceOnUse" x="0" y="6" width="106" height="22">
<path d="M100.31 14.3845C101.148 14.3845 101.966 14.5596 102.763 14.9097C103.56 15.2599 104.214 15.8211 104.726 16.5935C105.247 17.3556 105.508 18.3493 105.508 19.5748V27.4375H102.211V20.1773C102.211 19.0342 101.95 18.1949 101.429 17.6594C100.918 17.1136 100.238 16.8407 99.3898 16.8407C98.8276 16.8407 98.2859 17.0003 97.7646 17.3195C97.2432 17.6388 96.8139 18.0713 96.4766 18.6171C96.1495 19.1629 95.986 19.7911 95.986 20.5017V27.4375H92.6895V6.18201H95.986V16.887C96.078 16.5369 96.3233 16.1713 96.7219 15.7902C97.1308 15.3989 97.647 15.0694 98.2705 14.8016C98.8941 14.5236 99.5738 14.3845 100.31 14.3845Z" fill="url(#paint0_linear_673_6362)"/>
<path d="M86.6933 27.4369V25.0889C86.6115 25.3361 86.3764 25.6759 85.988 26.1084C85.6098 26.5409 85.0885 26.9323 84.4241 27.2824C83.7699 27.6326 82.993 27.8076 82.0935 27.8076C80.918 27.8076 79.8601 27.5244 78.9197 26.958C77.9793 26.3916 77.2382 25.6038 76.6964 24.5946C76.1547 23.5854 75.8838 22.4217 75.8838 21.1035C75.8838 19.7853 76.1547 18.6216 76.6964 17.6124C77.2382 16.6032 77.9793 15.8154 78.9197 15.249C79.8601 14.6723 80.918 14.3839 82.0935 14.3839C82.9726 14.3839 83.7341 14.5384 84.3781 14.8473C85.022 15.1563 85.5383 15.5116 85.9267 15.9132C86.3253 16.3148 86.5706 16.665 86.6626 16.9636V14.7546H89.9132V27.4369H86.6933ZM79.119 21.1035C79.119 21.9171 79.2979 22.6276 79.6556 23.2352C80.0134 23.8428 80.4785 24.3114 81.0509 24.6409C81.6335 24.9705 82.2571 25.1352 82.9215 25.1352C83.637 25.1352 84.2708 24.9653 84.8227 24.6255C85.3849 24.2856 85.8245 23.8171 86.1413 23.2198C86.4684 22.6122 86.632 21.9068 86.632 21.1035C86.632 20.3002 86.4684 19.6 86.1413 19.0027C85.8245 18.3951 85.3849 17.9213 84.8227 17.5815C84.2708 17.2314 83.637 17.0563 82.9215 17.0563C82.2571 17.0563 81.6335 17.2262 81.0509 17.5661C80.4785 17.8956 80.0134 18.3642 79.6556 18.9718C79.2979 19.5794 79.119 20.2899 79.119 21.1035Z" fill="url(#paint1_linear_673_6362)"/>
<path d="M68.8172 14.3842C69.6656 14.3842 70.4885 14.5592 71.2858 14.9094C72.0831 15.2595 72.7372 15.8208 73.2483 16.5931C73.7696 17.3552 74.0303 18.349 74.0303 19.5745V27.4371H70.7338V20.1769C70.7338 19.0338 70.4629 18.1945 69.9211 17.659C69.3896 17.1132 68.6996 16.8403 67.8512 16.8403C67.289 16.8403 66.7524 16.9999 66.2413 17.3191C65.7302 17.6384 65.3111 18.0709 64.984 18.6167C64.6672 19.1625 64.5087 19.7907 64.5087 20.5013V27.4371H61.2275V14.7549H64.5087V16.8866C64.6007 16.5365 64.846 16.1709 65.2447 15.7899C65.6536 15.3985 66.1698 15.069 66.7933 14.8012C67.4168 14.5232 68.0915 14.3842 68.8172 14.3842Z" fill="url(#paint2_linear_673_6362)"/>
<path fill-rule="evenodd" clip-rule="evenodd" d="M58.5354 8.87078C58.227 9.08424 57.8536 9.20917 57.4512 9.20917C56.3927 9.20917 55.5346 8.34467 55.5346 7.27826C55.5346 7.21773 55.5374 7.15786 55.5428 7.09875C55.3692 7.19579 55.2067 7.32256 55.0553 7.47904C54.6669 7.88067 54.4727 8.35954 54.4727 8.91564C54.4727 9.47174 54.6669 9.95061 55.0553 10.3522C55.4539 10.7539 55.9293 10.9547 56.4812 10.9547C57.0537 10.9547 57.5392 10.7539 57.9378 10.3522C58.3365 9.95061 58.5358 9.47174 58.5358 8.91564C58.5358 8.90062 58.5357 8.88567 58.5354 8.87078ZM54.81 14.7547V27.437H58.0758V14.7547H54.81Z" fill="url(#paint3_linear_673_6362)"/>
<path d="M44.3015 27.8082C43.1158 27.8082 42.0681 27.525 41.1583 26.9586C40.2486 26.3922 39.5331 25.6044 39.0117 24.5952C38.5007 23.586 38.2451 22.4223 38.2451 21.1041C38.2451 19.7859 38.5007 18.6222 39.0117 17.613C39.5331 16.6038 40.2486 15.816 41.1583 15.2496C42.0681 14.6729 43.1158 14.3845 44.3015 14.3845C45.1806 14.3845 45.9626 14.539 46.6474 14.8479C47.3323 15.1466 47.8791 15.4967 48.288 15.8984C48.6969 16.3 48.9371 16.6553 49.0086 16.9642V6.18201H52.2898V27.4375H49.0546V25.0895C48.9115 25.45 48.6202 25.8413 48.1807 26.2635C47.7411 26.6857 47.1841 27.0513 46.5094 27.3603C45.845 27.6589 45.109 27.8082 44.3015 27.8082ZM45.1448 25.1359C45.8603 25.1359 46.5094 24.9659 47.0921 24.6261C47.6747 24.2863 48.1398 23.8177 48.4873 23.2204C48.8349 22.6128 49.0086 21.9074 49.0086 21.1041C49.0086 20.3009 48.8349 19.6006 48.4873 19.0033C48.1398 18.3957 47.6747 17.922 47.0921 17.5821C46.5094 17.232 45.8603 17.0569 45.1448 17.0569C44.4906 17.0569 43.8824 17.2268 43.3202 17.5667C42.7682 17.8962 42.3236 18.3648 41.9863 18.9724C41.649 19.58 41.4803 20.2906 41.4803 21.1041C41.4803 21.9177 41.649 22.6282 41.9863 23.2358C42.3236 23.8434 42.7682 24.312 43.3202 24.6415C43.8824 24.9711 44.4906 25.1359 45.1448 25.1359Z" fill="url(#paint4_linear_673_6362)"/>
<path d="M32.8173 27.4369V25.0889C32.7356 25.3361 32.5005 25.6759 32.112 26.1084C31.7338 26.5409 31.2125 26.9323 30.5481 27.2824C29.8939 27.6326 29.117 27.8076 28.2175 27.8076C27.042 27.8076 25.9841 27.5244 25.0437 26.958C24.1033 26.3916 23.3622 25.6038 22.8204 24.5946C22.2787 23.5854 22.0078 22.4217 22.0078 21.1035C22.0078 19.7853 22.2787 18.6216 22.8204 17.6124C23.3622 16.6032 24.1033 15.8154 25.0437 15.249C25.9841 14.6723 27.042 14.3839 28.2175 14.3839C29.0966 14.3839 29.8581 14.5384 30.5021 14.8473C31.1461 15.1563 31.6623 15.5116 32.0507 15.9132C32.4493 16.3148 32.6947 16.665 32.7867 16.9636V14.7546H36.0372V27.4369H32.8173ZM25.243 21.1035C25.243 21.9171 25.4219 22.6276 25.7796 23.2352C26.1374 23.8428 26.6025 24.3114 27.1749 24.6409C27.7576 24.9705 28.3811 25.1352 29.0455 25.1352C29.761 25.1352 30.3948 24.9653 30.9467 24.6255C31.5089 24.2856 31.9485 23.8171 32.2654 23.2198C32.5924 22.6122 32.756 21.9068 32.756 21.1035C32.756 20.3002 32.5924 19.6 32.2654 19.0027C31.9485 18.3951 31.5089 17.9213 30.9467 17.5815C30.3948 17.2314 29.761 17.0563 29.0455 17.0563C28.3811 17.0563 27.7576 17.2262 27.1749 17.5661C26.6025 17.8956 26.1374 18.3642 25.7796 18.9718C25.4219 19.5794 25.243 20.2899 25.243 21.1035Z" fill="url(#paint5_linear_673_6362)"/>
<path d="M19.3805 7.04626V27.4367H16.1606V13.5496L16.3139 10.939L15.7006 13.874L11.2695 26.1391H8.09564L3.67984 13.874L3.06653 10.939L3.21986 13.5496V27.4367H0V7.04626H4.40047L9.46024 22.3082L9.69023 23.5285L9.90489 22.3082L14.9953 7.04626H19.3805Z" fill="url(#paint6_linear_673_6362)"/>
</mask>
<g mask="url(#mask0_673_6362)">
<rect y="6.18225" width="105.488" height="22.2215" fill="url(#paint7_linear_673_6362)"/>
</g>
<defs>
<linearGradient id="paint0_linear_673_6362" x1="92.6312" y1="18.5267" x2="105.914" y2="18.541" gradientUnits="userSpaceOnUse">
<stop stop-color="#20A746"/>
<stop offset="1" stop-color="#87CCF3"/>
</linearGradient>
<linearGradient id="paint1_linear_673_6362" x1="75.82" y1="22.1801" x2="90.358" y2="22.2072" gradientUnits="userSpaceOnUse">
<stop stop-color="#20A746"/>
<stop offset="1" stop-color="#87CCF3"/>
</linearGradient>
<linearGradient id="paint2_linear_673_6362" x1="61.1694" y1="21.965" x2="74.4362" y2="21.9882" gradientUnits="userSpaceOnUse">
<stop stop-color="#20A746"/>
<stop offset="1" stop-color="#87CCF3"/>
</linearGradient>
<linearGradient id="paint3_linear_673_6362" x1="54.4542" y1="18.9107" x2="58.6646" y2="18.9122" gradientUnits="userSpaceOnUse">
<stop stop-color="#20A746"/>
<stop offset="1" stop-color="#87CCF3"/>
</linearGradient>
<linearGradient id="paint4_linear_673_6362" x1="38.1813" y1="18.742" x2="52.7351" y2="18.7589" gradientUnits="userSpaceOnUse">
<stop stop-color="#20A746"/>
<stop offset="1" stop-color="#87CCF3"/>
</linearGradient>
<linearGradient id="paint5_linear_673_6362" x1="21.9441" y1="22.1801" x2="36.482" y2="22.2072" gradientUnits="userSpaceOnUse">
<stop stop-color="#20A746"/>
<stop offset="1" stop-color="#87CCF3"/>
</linearGradient>
<linearGradient id="paint6_linear_673_6362" x1="-0.0880768" y1="18.8885" x2="19.9949" y2="18.9226" gradientUnits="userSpaceOnUse">
<stop stop-color="#20A746"/>
<stop offset="1" stop-color="#87CCF3"/>
</linearGradient>
<linearGradient id="paint7_linear_673_6362" x1="-1.98942e-07" y1="17.293" x2="105.494" y2="17.8129" gradientUnits="userSpaceOnUse">
<stop stop-color="#6363E6"/>
<stop offset="1" stop-color="#59C9F9"/>
</linearGradient>
</defs>
</svg>
