<svg width="114" height="21" viewBox="0 0 114 21" fill="none" xmlns="http://www.w3.org/2000/svg">
<path d="M5.09597 20.6718H0V0.375L10.4058 12.0201L20.9184 0.375V20.6718H15.8224L16.0006 12.7502L10.4058 18.8831L4.88215 12.7502L5.09597 20.6718Z" fill="white"/>
<path fill-rule="evenodd" clip-rule="evenodd" d="M34.6754 6.90891V5.88677H39.1656V20.7078H34.6754V19.6857C33.9627 20.1359 32.3947 20.9634 30.1496 20.9634C27.37 20.9634 22.8086 19.2476 22.8086 13.1148C22.8086 8.2596 26.7642 5.59473 30.1496 5.59473C32.4218 5.59473 33.8922 6.4522 34.6667 6.90382L34.6754 6.90891ZM30.9693 17.0938C33.0358 17.0938 34.7111 15.3777 34.7111 13.2608C34.7111 11.1439 33.0358 9.42776 30.9693 9.42776C28.9027 9.42776 27.2275 11.1439 27.2275 13.2608C27.2275 15.3777 28.9027 17.0938 30.9693 17.0938Z" fill="white"/>
<path fill-rule="evenodd" clip-rule="evenodd" d="M93.6871 6.90891V5.88677H98.1773V20.7078H93.6871V19.6857C92.9744 20.1359 91.4064 20.9634 89.1614 20.9634C86.3817 20.9634 81.8203 19.2476 81.8203 13.1148C81.8203 8.2596 85.7759 5.59473 89.1614 5.59473C91.4335 5.59473 92.9039 6.4522 93.6784 6.90382L93.6871 6.90891ZM89.981 17.0938C92.0475 17.0938 93.7228 15.3777 93.7228 13.2608C93.7228 11.1439 92.0475 9.42776 89.981 9.42776C87.9145 9.42776 86.2392 11.1439 86.2392 13.2608C86.2392 15.3777 87.9145 17.0938 89.981 17.0938Z" fill="white"/>
<path fill-rule="evenodd" clip-rule="evenodd" d="M52.7067 6.94597V0.0830078H57.1968V20.7449H52.7067V19.7228C51.994 20.173 50.426 21.0004 48.1809 21.0004C45.4013 21.0004 40.8398 19.2847 40.8398 13.1518C40.8398 8.29666 44.7955 5.63178 48.1809 5.63178C50.453 5.63178 51.9235 6.48926 52.6979 6.94087L52.7067 6.94597ZM49.0005 17.1309C51.0671 17.1309 52.7423 15.4148 52.7423 13.2979C52.7423 11.1809 51.0671 9.46482 49.0005 9.46482C46.934 9.46482 45.2587 11.1809 45.2587 13.2979C45.2587 15.4148 46.934 17.1309 49.0005 17.1309Z" fill="white"/>
<path d="M59.2969 5.77734H64.0008V20.7444H59.2969V5.77734Z" fill="white"/>
<path d="M70.8446 5.77716H66.1406V20.7442H70.8446V11.1069C70.9871 10.5107 71.6571 9.32545 73.1966 9.35466C75.1209 9.39116 75.4417 10.7053 75.4773 11.1069C75.5058 11.4281 75.4892 17.6657 75.4773 20.7442H80.0743V9.86573C79.9318 8.51504 78.8128 5.76256 75.4773 5.55813C73.1966 5.41834 70.999 6.42208 70.8446 6.98182V5.77716Z" fill="white"/>
<path d="M104.77 0.155273H100.066V20.7442H104.77V11.1068C104.913 10.5106 105.583 9.32536 107.122 9.35457C109.047 9.39107 109.367 10.7053 109.403 11.1068C109.432 11.4281 109.415 17.6656 109.403 20.7442H114V9.86564C113.858 8.51495 112.739 5.76247 109.403 5.55804C107.122 5.41825 104.925 6.42199 104.77 6.98173V0.155273Z" fill="white"/>
<path fill-rule="evenodd" clip-rule="evenodd" d="M64.1939 2.79351C63.8826 2.92839 63.5404 3.00298 63.1811 3.00298C61.7444 3.00298 60.5797 1.80988 60.5797 0.338107C60.5797 0.223574 60.5868 0.110727 60.6005 0C59.6668 0.404578 59.0117 1.35162 59.0117 2.4554C59.0117 3.92717 60.1764 5.12028 61.6132 5.12028C62.9381 5.12028 64.0317 4.10564 64.1939 2.79351Z" fill="white"/>
</svg>
