<svg width="114" height="21" viewBox="0 0 114 21" fill="none" xmlns="http://www.w3.org/2000/svg">
<path d="M5.09597 20.6714H0V0.374512L10.4058 12.0196L20.9184 0.374512V20.6714H15.8224L16.0006 12.7497L10.4058 18.8826L4.88215 12.7497L5.09597 20.6714Z" fill="#404040"/>
<path fill-rule="evenodd" clip-rule="evenodd" d="M34.6735 6.90891V5.88677H39.1636V20.7078H34.6735V19.6857C33.9608 20.1359 32.3928 20.9634 30.1477 20.9634C27.3681 20.9634 22.8066 19.2476 22.8066 13.1148C22.8066 8.2596 26.7623 5.59473 30.1477 5.59473C32.4198 5.59473 33.8903 6.4522 34.6647 6.90382L34.6735 6.90891ZM30.9673 17.0938C33.0339 17.0938 34.7091 15.3777 34.7091 13.2608C34.7091 11.1439 33.0339 9.42776 30.9673 9.42776C28.9008 9.42776 27.2255 11.1439 27.2255 13.2608C27.2255 15.3777 28.9008 17.0938 30.9673 17.0938Z" fill="#404040"/>
<path fill-rule="evenodd" clip-rule="evenodd" d="M93.6871 6.90891V5.88677H98.1773V20.7078H93.6871V19.6857C92.9744 20.1359 91.4064 20.9634 89.1614 20.9634C86.3817 20.9634 81.8203 19.2476 81.8203 13.1148C81.8203 8.2596 85.7759 5.59473 89.1614 5.59473C91.4335 5.59473 92.9039 6.4522 93.6784 6.90382L93.6871 6.90891ZM89.981 17.0938C92.0475 17.0938 93.7228 15.3777 93.7228 13.2608C93.7228 11.1439 92.0475 9.42776 89.981 9.42776C87.9145 9.42776 86.2392 11.1439 86.2392 13.2608C86.2392 15.3777 87.9145 17.0938 89.981 17.0938Z" fill="#404040"/>
<path fill-rule="evenodd" clip-rule="evenodd" d="M52.7067 6.94548V0.0825195H57.1968V20.7444H52.7067V19.7223C51.994 20.1725 50.426 20.9999 48.1809 20.9999C45.4013 20.9999 40.8398 19.2842 40.8398 13.1513C40.8398 8.29617 44.7955 5.6313 48.1809 5.6313C50.453 5.6313 51.9235 6.48877 52.6979 6.94038L52.7067 6.94548ZM49.0005 17.1304C51.0671 17.1304 52.7423 15.4143 52.7423 13.2974C52.7423 11.1804 51.0671 9.46433 49.0005 9.46433C46.934 9.46433 45.2587 11.1804 45.2587 13.2974C45.2587 15.4143 46.934 17.1304 49.0005 17.1304Z" fill="#404040"/>
<path d="M59.2988 5.77734H64.0028V20.7444H59.2988V5.77734Z" fill="#404040"/>
<path d="M70.8446 5.77716H66.1406V20.7442H70.8446V11.1069C70.9871 10.5107 71.6571 9.32545 73.1966 9.35466C75.1209 9.39116 75.4417 10.7053 75.4773 11.1069C75.5058 11.4281 75.4892 17.6657 75.4773 20.7442H80.0743V9.86573C79.9318 8.51504 78.8128 5.76256 75.4773 5.55813C73.1966 5.41834 70.999 6.42208 70.8446 6.98182V5.77716Z" fill="#404040"/>
<path d="M104.77 0.155762H100.066V20.7447H104.77V11.1073C104.913 10.5111 105.583 9.32585 107.122 9.35506C109.047 9.39156 109.367 10.7057 109.403 11.1073C109.432 11.4285 109.415 17.6661 109.403 20.7447H114V9.86613C113.858 8.51544 112.739 5.76296 109.403 5.55852C107.122 5.41874 104.925 6.42248 104.77 6.98222V0.155762Z" fill="#404040"/>
<path fill-rule="evenodd" clip-rule="evenodd" d="M64.1958 2.79351C63.8845 2.92839 63.5423 3.00298 63.1831 3.00298C61.7464 3.00298 60.5817 1.80988 60.5817 0.338107C60.5817 0.223574 60.5887 0.110727 60.6024 0C59.6688 0.404578 59.0137 1.35162 59.0137 2.4554C59.0137 3.92717 60.1784 5.12028 61.6151 5.12028C62.94 5.12028 64.0336 4.10564 64.1958 2.79351Z" fill="#404040"/>
</svg>
