<svg width="71" height="15" viewBox="0 0 71 15" fill="none" xmlns="http://www.w3.org/2000/svg">
<mask id="mask0_227_735" style="mask-type:alpha" maskUnits="userSpaceOnUse" x="0" y="0" width="71" height="15">
<path d="M67.0514 5.47271C67.6075 5.47271 68.15 5.588 68.679 5.81858C69.208 6.04916 69.642 6.41876 69.9811 6.92739C70.327 7.42924 70.4999 8.08368 70.4999 8.89071V14.0686H68.3128V9.28744C68.3128 8.53467 68.1399 7.98195 67.794 7.6293C67.4549 7.26987 67.0039 7.09015 66.441 7.09015C66.068 7.09015 65.7086 7.19527 65.3627 7.40551C65.0169 7.61574 64.732 7.90057 64.5082 8.26001C64.2912 8.61944 64.1827 9.03312 64.1827 9.50106V14.0686H61.9956V0.0710449H64.1827V7.12067C64.2438 6.89009 64.4065 6.64934 64.671 6.39842C64.9423 6.14071 65.2848 5.92369 65.6984 5.74737C66.1121 5.56426 66.5631 5.47271 67.0514 5.47271Z" fill="url(#paint0_linear_227_735)"/>
<path d="M58.0176 14.0683V12.522C57.9634 12.6848 57.8074 12.9086 57.5497 13.1934C57.2988 13.4783 56.9529 13.736 56.5121 13.9666C56.0781 14.1971 55.5627 14.3124 54.9659 14.3124C54.186 14.3124 53.484 14.1259 52.8601 13.7529C52.2362 13.3799 51.7445 12.8611 51.3851 12.1965C51.0257 11.5319 50.8459 10.7656 50.8459 9.8975C50.8459 9.02944 51.0257 8.2631 51.3851 7.59849C51.7445 6.93388 52.2362 6.41508 52.8601 6.04208C53.484 5.6623 54.186 5.47241 54.9659 5.47241C55.5491 5.47241 56.0543 5.57414 56.4816 5.77759C56.9088 5.98104 57.2513 6.21501 57.509 6.4795C57.7735 6.74399 57.9363 6.97457 57.9973 7.17124V5.71656H60.1539V14.0683H58.0176ZM52.9924 9.8975C52.9924 10.4333 53.1111 10.9012 53.3484 11.3013C53.5858 11.7014 53.8943 12.01 54.2741 12.227C54.6607 12.4441 55.0744 12.5526 55.5152 12.5526C55.9899 12.5526 56.4104 12.4407 56.7766 12.2169C57.1496 11.9931 57.4412 11.6845 57.6514 11.2912C57.8685 10.891 57.977 10.4265 57.977 9.8975C57.977 9.36853 57.8685 8.90737 57.6514 8.51403C57.4412 8.1139 57.1496 7.80194 56.7766 7.57815C56.4104 7.34757 55.9899 7.23228 55.5152 7.23228C55.0744 7.23228 54.6607 7.34417 54.2741 7.56797C53.8943 7.78499 53.5858 8.09356 53.3484 8.49368C53.1111 8.8938 52.9924 9.36174 52.9924 9.8975Z" fill="url(#paint1_linear_227_735)"/>
<path d="M46.1573 5.47241C46.7202 5.47241 47.2661 5.5877 47.7951 5.81828C48.324 6.04886 48.7581 6.41847 49.0972 6.9271C49.443 7.42895 49.616 8.08339 49.616 8.89041V14.0683H47.4289V9.28715C47.4289 8.53437 47.2491 7.98166 46.8897 7.62901C46.537 7.26958 46.0793 7.08986 45.5164 7.08986C45.1434 7.08986 44.7874 7.19498 44.4483 7.40521C44.1092 7.61545 43.8311 7.90028 43.6141 8.25971C43.4039 8.61914 43.2988 9.03283 43.2988 9.50077V14.0683H41.1218V5.71656H43.2988V7.12038C43.3598 6.8898 43.5226 6.64905 43.7871 6.39812C44.0583 6.14041 44.4008 5.9234 44.8145 5.74707C45.2282 5.56397 45.6758 5.47241 46.1573 5.47241Z" fill="url(#paint2_linear_227_735)"/>
<path fill-rule="evenodd" clip-rule="evenodd" d="M39.3361 1.84175C39.1315 1.98232 38.8838 2.06459 38.6168 2.06459C37.9145 2.06459 37.3452 1.49529 37.3452 0.793012C37.3452 0.753155 37.347 0.713726 37.3506 0.674805C37.2355 0.738708 37.1277 0.822185 37.0272 0.925236C36.7695 1.18972 36.6406 1.50508 36.6406 1.87129C36.6406 2.2375 36.7695 2.55286 37.0272 2.81734C37.2917 3.08183 37.607 3.21408 37.9732 3.21408C38.353 3.21408 38.6751 3.08183 38.9396 2.81734C39.2041 2.55286 39.3364 2.2375 39.3364 1.87129C39.3364 1.8614 39.3363 1.85155 39.3361 1.84175ZM36.8644 5.71654V14.0683H39.0312V5.71654H36.8644Z" fill="url(#paint3_linear_227_735)"/>
<path d="M29.8927 14.3127C29.106 14.3127 28.4109 14.1262 27.8073 13.7532C27.2037 13.3802 26.729 12.8614 26.3831 12.1968C26.0441 11.5322 25.8745 10.7659 25.8745 9.8978C25.8745 9.02973 26.0441 8.2634 26.3831 7.59878C26.729 6.93417 27.2037 6.41537 27.8073 6.04237C28.4109 5.6626 29.106 5.47271 29.8927 5.47271C30.4759 5.47271 30.9947 5.57443 31.4491 5.77789C31.9035 5.97456 32.2663 6.20514 32.5376 6.46962C32.8088 6.73411 32.9682 6.96808 33.0157 7.17153V0.0710449H35.1926V14.0686H33.0462V12.5223C32.9513 12.7597 32.758 13.0174 32.4664 13.2955C32.1748 13.5735 31.8052 13.8143 31.3576 14.0177C30.9167 14.2144 30.4285 14.3127 29.8927 14.3127ZM30.4522 12.5529C30.9269 12.5529 31.3576 12.441 31.7441 12.2172C32.1307 11.9934 32.4392 11.6848 32.6698 11.2914C32.9004 10.8913 33.0157 10.4268 33.0157 9.8978C33.0157 9.36882 32.9004 8.90766 32.6698 8.51432C32.4392 8.1142 32.1307 7.80224 31.7441 7.57844C31.3576 7.34786 30.9269 7.23257 30.4522 7.23257C30.0182 7.23257 29.6146 7.34447 29.2417 7.56827C28.8754 7.78528 28.5804 8.09385 28.3566 8.49398C28.1328 8.8941 28.0209 9.36204 28.0209 9.8978C28.0209 10.4336 28.1328 10.9015 28.3566 11.3016C28.5804 11.7017 28.8754 12.0103 29.2417 12.2273C29.6146 12.4443 30.0182 12.5529 30.4522 12.5529Z" fill="url(#paint4_linear_227_735)"/>
<path d="M22.273 14.0683V12.522C22.2188 12.6848 22.0628 12.9086 21.8051 13.1934C21.5542 13.4783 21.2083 13.736 20.7675 13.9666C20.3334 14.1971 19.818 14.3124 19.2212 14.3124C18.4413 14.3124 17.7394 14.1259 17.1155 13.7529C16.4916 13.3799 15.9999 12.8611 15.6405 12.1965C15.281 11.5319 15.1013 10.7656 15.1013 9.8975C15.1013 9.02944 15.281 8.2631 15.6405 7.59849C15.9999 6.93388 16.4916 6.41508 17.1155 6.04208C17.7394 5.6623 18.4413 5.47241 19.2212 5.47241C19.8045 5.47241 20.3097 5.57414 20.737 5.77759C21.1642 5.98104 21.5067 6.21501 21.7644 6.4795C22.0289 6.74399 22.1916 6.97457 22.2527 7.17124V5.71656H24.4093V14.0683H22.273ZM17.2477 9.8975C17.2477 10.4333 17.3664 10.9012 17.6038 11.3013C17.8411 11.7014 18.1497 12.01 18.5295 12.227C18.9161 12.4441 19.3297 12.5526 19.7706 12.5526C20.2453 12.5526 20.6657 12.4407 21.032 12.2169C21.405 11.9931 21.6966 11.6845 21.9068 11.2912C22.1238 10.891 22.2323 10.4265 22.2323 9.8975C22.2323 9.36853 22.1238 8.90737 21.9068 8.51403C21.6966 8.1139 21.405 7.80194 21.032 7.57815C20.6657 7.34757 20.2453 7.23228 19.7706 7.23228C19.3297 7.23228 18.9161 7.34417 18.5295 7.56797C18.1497 7.78499 17.8411 8.09356 17.6038 8.49368C17.3664 8.8938 17.2477 9.36174 17.2477 9.8975Z" fill="url(#paint5_linear_227_735)"/>
<path d="M13.3582 0.640259V14.0681H11.2219V4.92293L11.3237 3.20376L10.9168 5.13656L7.97688 13.2136H5.87114L2.94143 5.13656L2.53452 3.20376L2.63625 4.92293V14.0681H0.5V0.640259H3.41954L6.77651 10.6908L6.9291 11.4944L7.07151 10.6908L10.4488 0.640259H13.3582Z" fill="url(#paint6_linear_227_735)"/>
</mask>
<g mask="url(#mask0_227_735)">
<rect x="0.5" y="0.0712891" width="69.9871" height="14.6337" fill="url(#paint7_linear_227_735)"/>
</g>
<defs>
<linearGradient id="paint0_linear_227_735" x1="61.957" y1="8.20046" x2="70.7696" y2="8.21002" gradientUnits="userSpaceOnUse">
<stop stop-color="#20A746"/>
<stop offset="1" stop-color="#87CCF3"/>
</linearGradient>
<linearGradient id="paint1_linear_227_735" x1="50.8036" y1="10.6065" x2="60.449" y2="10.6246" gradientUnits="userSpaceOnUse">
<stop stop-color="#20A746"/>
<stop offset="1" stop-color="#87CCF3"/>
</linearGradient>
<linearGradient id="paint2_linear_227_735" x1="41.0832" y1="10.4647" x2="49.8853" y2="10.4802" gradientUnits="userSpaceOnUse">
<stop stop-color="#20A746"/>
<stop offset="1" stop-color="#87CCF3"/>
</linearGradient>
<linearGradient id="paint3_linear_227_735" x1="36.6284" y1="8.45339" x2="39.4218" y2="8.4544" gradientUnits="userSpaceOnUse">
<stop stop-color="#20A746"/>
<stop offset="1" stop-color="#87CCF3"/>
</linearGradient>
<linearGradient id="paint4_linear_227_735" x1="25.8322" y1="8.34226" x2="35.4881" y2="8.35353" gradientUnits="userSpaceOnUse">
<stop stop-color="#20A746"/>
<stop offset="1" stop-color="#87CCF3"/>
</linearGradient>
<linearGradient id="paint5_linear_227_735" x1="15.059" y1="10.6065" x2="24.7044" y2="10.6246" gradientUnits="userSpaceOnUse">
<stop stop-color="#20A746"/>
<stop offset="1" stop-color="#87CCF3"/>
</linearGradient>
<linearGradient id="paint6_linear_227_735" x1="0.441564" y1="8.43883" x2="13.7659" y2="8.4616" gradientUnits="userSpaceOnUse">
<stop stop-color="#20A746"/>
<stop offset="1" stop-color="#87CCF3"/>
</linearGradient>
<linearGradient id="paint7_linear_227_735" x1="0.5" y1="7.38814" x2="70.4909" y2="7.73562" gradientUnits="userSpaceOnUse">
<stop stop-color="#54D178"/>
<stop offset="0.508576" stop-color="#47E2B7"/>
<stop offset="1" stop-color="#5CC7FC"/>
</linearGradient>
</defs>
</svg>
