<svg xml:space="preserve" viewBox="16.45 18.7 71 72.25" y="0px" x="0px" version="1.1" xmlns:xlink="http://www.w3.org/1999/xlink" xmlns="http://www.w3.org/2000/svg" style="max-height: 500px" width="71" height="72.25"><g><g><g><g><g><g><path d="M56.7,78.2c0.9,1.4,2,2.6,3.4,3.6c2,1.4,4.3,2.2,6.9,2.2c5.6,0,10.2-3.8,11.6-8.9c0.3-1,0.4-2,0.4-3.1        c0-0.4,0-0.7,0-1.1c-0.5-5.2-4.2-9.4-9-10.6C69,60.1,68,60,67,60c-0.4,0-0.9,0-1.3,0.1c-0.2,0-0.4,0-0.6,0.1        C59.4,61,55,66,55,72C55,74.2,55.6,76.4,56.7,78.2z M52.4,78.5c-0.9-2-1.4-4.2-1.4-6.5c0-7.3,4.9-13.4,11.5-15.4        c0.4-0.1,0.9-0.2,1.4-0.3c-1.6-2.6-3.5-4.6-5.6-6.1c-1-0.8-2.1-1.4-3.2-1.8c-1.3-0.5-2.5-0.8-3.7-0.8c-1,0-2.1,0.2-3.1,0.6        c-1.1,0.4-2.2,0.9-3.3,1.7c-5.1,3.4-9.8,10.7-9.8,20.7c0,0.9,0.1,1.7,0.5,2.4c0.3,0.8,0.8,1.4,1.4,2c0.7,0.6,1.6,1.2,2.7,1.6        C42.8,78,47.7,78.6,52.4,78.5z M85.9,65.8c0,2.6-1.1,4.8-2.8,6.6c0,0,0,0-0.1,0.1C82.7,81.1,75.6,88,67,88        c-4.8,0-9.1-2.1-12-5.4c-7.9,0.7-16.8-0.7-20.8-4.6c-0.4-0.4-0.7-0.8-1.1-1.2C27.9,76.4,23,75,20.4,72.4        c-1.8-1.8-2.8-4-2.8-6.6c0-5.4,1.8-11.4,4.8-16c1.5-2.3,3.2-4.1,5.1-5.5c0.3-0.3,0.4-0.7,0.5-1.1c0.1-0.6-0.1-1.3-0.5-1.8        c-1.8-2-3-4.7-3-7.7c0-6.3,5.1-11.4,11.4-11.4c2.9,0,5.5,1.1,7.5,2.9c2.2-1.8,4.9-2.8,7.9-2.8c3.2,0,6.1,1.2,8.3,3.1        c2-2,4.8-3.2,7.9-3.2c6.3,0,11.4,5.1,11.4,11.4c0,2.9-1.1,5.6-3,7.7c-0.4,0.6-0.5,1.2-0.5,1.8c0,0.4,0.2,0.8,0.5,1.1        c1.9,1.4,3.6,3.2,5,5.5C84,54.4,85.9,60.4,85.9,65.8z M82.2,66.9c0.1-0.3,0.1-0.7,0.1-1.1c0-12.8-8.6-20.7-14.7-20.7        c-1.9,0-4.1,0.8-6.2,2.2c1.8,1.4,3.4,3.3,4.9,5.5c0.7,1,1.3,2,1.8,3.2C74.7,56.5,80.1,60.9,82.2,66.9z M73.8,38.2        c0.9-1.3,1.5-2.8,1.5-4.5c0-4.3-3.5-7.8-7.8-7.8c-2.2,0-4.1,0.9-5.5,2.3c1.2,2,2,4.3,2,6.7c0,1.8-0.4,3.4-1,5        c1.3,1,2.9,1.5,4.6,1.5c2.2,0,4.2-0.9,5.6-2.4C73.3,38.8,73.6,38.5,73.8,38.2z M59.7,34.7c0-4.7-3.8-8.5-8.5-8.5        c-4.7,0-8.5,3.8-8.5,8.5s3.8,8.5,8.5,8.5C56,43.2,59.7,39.4,59.7,34.7z M38.7,35c0-2.7,0.8-5.1,2.2-7.1        c-1.4-1.2-3.1-1.9-5.1-1.9c-4.3,0-7.8,3.5-7.8,7.8c0,1.7,0.5,3.2,1.5,4.5c0.3,0.3,0.5,0.6,0.7,0.9c1.4,1.5,3.4,2.4,5.6,2.4        c1.5,0,2.9-0.4,4-1.2C39.2,38.7,38.7,36.9,38.7,35z M36.4,52.8c1.5-2.4,3.3-4.3,5.3-5.8c-1.9-1.3-4-2-5.8-2        c-6.1,0-14.7,7.9-14.7,20.7c0,1.6,0.5,2.9,1.7,4c1.6,1.5,4.8,2.5,8.4,2.9c-0.2-0.7-0.2-1.4-0.2-2.2        C31.1,64.5,33,57.9,36.4,52.8z"/></g></g></g></g></g></g><g><path d="M66.8,78.5c-1.2-0.1-4.1-0.4-4.1-2.1c0-0.8,0.6-1.5,1.3-1.5c0.6,0,1.5,0.8,2.8,0.8v-2.8c-3-0.9-4-2-4-3.6   c0-2.4,1.8-3.9,4-4.1v-0.8c0-0.3,0.2-0.5,0.5-0.5c0.4,0,0.5,0.2,0.5,0.5v0.8c1.1,0,3.2,0.4,3.2,1.9c0,0.7-0.5,1.3-1.2,1.3   c-0.7,0-1.2-0.7-2-0.7v2.5c2,0.6,4.1,1.5,4.1,4c0,2.8-2.3,4.1-4.1,4.2v0.8c0,0.3-0.2,0.5-0.5,0.5c-0.4,0-0.5-0.2-0.5-0.5V78.5z    M66.8,67.7c-0.6,0.1-1,0.5-1,1.2c0,0.6,0.5,0.9,1,1V67.7z M67.9,75.7c0.6,0,1-0.6,1-1.2c0-0.8-0.4-1.1-1-1.3V75.7z"/></g><text font-family="'Helvetica Neue', Helvetica, Arial-Unicode, Arial, Sans-serif" font-weight="bold" font-size="5px" fill="#000000" y="115" x="0">Created by Mrfa Studio</text><text font-family="'Helvetica Neue', Helvetica, Arial-Unicode, Arial, Sans-serif" font-weight="bold" font-size="5px" fill="#000000" y="120" x="0">from the Noun Project</text></svg>