<svg width="20" height="21" viewBox="0 0 20 21" fill="none" xmlns="http://www.w3.org/2000/svg">
<path d="M2.91621 17.5833C3.60788 18.275 4.72454 18.275 5.41621 17.5833L16.2495 6.74995C16.9412 6.05828 16.9412 4.94162 16.2495 4.24995C15.5579 3.55828 14.4412 3.55828 13.7495 4.24995L2.91621 15.0833C2.22454 15.775 2.22454 16.8916 2.91621 17.5833Z" stroke="#444447" stroke-width="1.5" stroke-linecap="round" stroke-linejoin="round"/>
<path d="M15.0088 7.9917L12.5088 5.4917" stroke="#444447" stroke-width="1.5" stroke-linecap="round" stroke-linejoin="round"/>
<path d="M7.08301 2.53341L8.33301 2.16675L7.96634 3.41675L8.33301 4.66675L7.08301 4.30008L5.83301 4.66675L6.19967 3.41675L5.83301 2.16675L7.08301 2.53341Z" stroke="#444447" stroke-linecap="round" stroke-linejoin="round"/>
<path d="M3.75 7.53341L5 7.16675L4.63333 8.41675L5 9.66675L3.75 9.30008L2.5 9.66675L2.86667 8.41675L2.5 7.16675L3.75 7.53341Z" stroke="#444447" stroke-linecap="round" stroke-linejoin="round"/>
<path d="M16.25 11.6999L17.5 11.3333L17.1333 12.5833L17.5 13.8333L16.25 13.4666L15 13.8333L15.3667 12.5833L15 11.3333L16.25 11.6999Z" stroke="#444447" stroke-linecap="round" stroke-linejoin="round"/>
</svg>
