<svg width="20" height="21" viewBox="0 0 20 21" fill="none" xmlns="http://www.w3.org/2000/svg">
<path d="M7.49984 18.8334H12.4998C16.6665 18.8334 18.3332 17.1667 18.3332 13.0001V8.00008C18.3332 3.83341 16.6665 2.16675 12.4998 2.16675H7.49984C3.33317 2.16675 1.6665 3.83341 1.6665 8.00008V13.0001C1.6665 17.1667 3.33317 18.8334 7.49984 18.8334Z" stroke="#444447" stroke-width="1.5" stroke-linecap="round" stroke-linejoin="round"/>
<path d="M7.5835 10.5V9.26666C7.5835 7.67499 8.7085 7.03333 10.0835 7.82499L11.1502 8.44166L12.2168 9.05833C13.5918 9.84999 13.5918 11.15 12.2168 11.9417L11.1502 12.5583L10.0835 13.175C8.7085 13.9667 7.5835 13.3167 7.5835 11.7333V10.5Z" stroke="#444447" stroke-width="1.5" stroke-miterlimit="10" stroke-linecap="round" stroke-linejoin="round"/>
</svg>
