<svg width="20" height="21" viewBox="0 0 20 21" fill="none" xmlns="http://www.w3.org/2000/svg">
<path d="M7.50016 8.83333C8.42064 8.83333 9.16683 8.08714 9.16683 7.16667C9.16683 6.24619 8.42064 5.5 7.50016 5.5C6.57969 5.5 5.8335 6.24619 5.8335 7.16667C5.8335 8.08714 6.57969 8.83333 7.50016 8.83333Z" stroke="#444447" stroke-width="1.5" stroke-linecap="round" stroke-linejoin="round"/>
<path d="M10.8332 2.16675H7.49984C3.33317 2.16675 1.6665 3.83341 1.6665 8.00008V13.0001C1.6665 17.1667 3.33317 18.8334 7.49984 18.8334H12.4998C16.6665 18.8334 18.3332 17.1667 18.3332 13.0001V8.83341" stroke="#444447" stroke-width="1.5" stroke-linecap="round" stroke-linejoin="round"/>
<path d="M13.125 4.66675H17.7083" stroke="#444447" stroke-width="1.5" stroke-linecap="round"/>
<path d="M15.4165 6.95833V2.375" stroke="#444447" stroke-width="1.5" stroke-linecap="round"/>
<path d="M2.2251 16.2916L6.33343 13.5332C6.99176 13.0916 7.94176 13.1416 8.53343 13.6499L8.80843 13.8916C9.45843 14.4499 10.5084 14.4499 11.1584 13.8916L14.6251 10.9166C15.2751 10.3582 16.3251 10.3582 16.9751 10.9166L18.3334 12.0832" stroke="#444447" stroke-width="1.5" stroke-linecap="round" stroke-linejoin="round"/>
</svg>
