<svg width="48" height="48" viewBox="0 0 48 48" fill="none" xmlns="http://www.w3.org/2000/svg">
<rect width="48" height="48" rx="12" fill="#F7F7FF"/>
<path d="M22.9718 14.7085C23.4382 13.9335 24.5618 13.9335 25.0282 14.7085L27.3586 18.5809C27.5262 18.8593 27.7995 19.0578 28.116 19.1312L32.5191 20.1509C33.4002 20.355 33.7474 21.4236 33.1545 22.1066L30.1918 25.5196C29.9788 25.765 29.8744 26.0863 29.9025 26.41L30.2932 30.9127C30.3714 31.8138 29.4625 32.4742 28.6296 32.1214L24.4681 30.3583C24.1689 30.2316 23.8311 30.2316 23.5319 30.3583L19.3704 32.1214C18.5375 32.4742 17.6286 31.8138 17.7068 30.9127L18.0975 26.41C18.1256 26.0863 18.0212 25.765 17.8082 25.5196L14.8455 22.1066C14.2526 21.4236 14.5998 20.355 15.4809 20.1509L19.884 19.1312C20.2005 19.0578 20.4738 18.8593 20.6414 18.5809L22.9718 14.7085Z" fill="#6363E6" stroke="#6363E6" stroke-width="1.5"/>
</svg>
