<svg width="49" height="48" viewBox="0 0 49 48" fill="none" xmlns="http://www.w3.org/2000/svg">
<rect x="0.666016" width="48" height="48" rx="12" fill="#F7F7FF"/>
<g clip-path="url(#clip0_3390_123450)">
<path d="M24.666 31.5C30.052 31.5 34.416 27.1359 34.416 21.75C34.416 16.3641 30.052 12 24.666 12C19.2801 12 14.916 16.3641 14.916 21.75C14.916 27.1359 19.2801 31.5 24.666 31.5ZM23.6254 16.5656V15.7781C23.6254 15.3469 23.9723 15 24.4035 15H24.9238C25.3551 15 25.702 15.3469 25.702 15.7781V16.575C26.4285 16.6125 27.1316 16.8609 27.7176 17.2969C27.9801 17.4891 28.0082 17.8734 27.7738 18.0984L27.0098 18.825C26.8316 18.9984 26.5645 19.0031 26.3535 18.8719C26.1004 18.7125 25.8191 18.6328 25.5191 18.6328H23.6957C23.2738 18.6328 22.9316 19.0172 22.9316 19.4906C22.9316 19.875 23.166 20.2172 23.4988 20.3156L26.4191 21.1922C27.6238 21.5531 28.4676 22.7109 28.4676 24.0094C28.4676 25.6031 27.2301 26.8922 25.6973 26.9344V27.7219C25.6973 28.1531 25.3504 28.5 24.9191 28.5H24.3988C23.9676 28.5 23.6207 28.1531 23.6207 27.7219V26.925C22.8941 26.8875 22.191 26.6391 21.6051 26.2031C21.3426 26.0109 21.3145 25.6266 21.5488 25.4016L22.3129 24.675C22.491 24.5016 22.7582 24.4969 22.9691 24.6281C23.2223 24.7875 23.5035 24.8672 23.8035 24.8672H25.627C26.0488 24.8672 26.391 24.4828 26.391 24.0094C26.391 23.625 26.1566 23.2828 25.8238 23.1844L22.9035 22.3078C21.6988 21.9469 20.8551 20.7891 20.8551 19.4906C20.8598 17.8969 22.0926 16.6078 23.6254 16.5656ZM35.166 28.5H33.6426C32.7238 29.7188 31.552 30.7359 30.2207 31.5H33.2113C33.4598 31.5 33.6613 31.6688 33.6613 31.875V32.625C33.6613 32.8312 33.4598 33 33.2113 33H16.116C15.8676 33 15.666 32.8312 15.666 32.625V31.875C15.666 31.6688 15.8676 31.5 16.116 31.5H19.1066C17.7754 30.7359 16.6082 29.7188 15.6848 28.5H14.166C13.3363 28.5 12.666 29.1703 12.666 30V34.5C12.666 35.3297 13.3363 36 14.166 36H35.166C35.9957 36 36.666 35.3297 36.666 34.5V30C36.666 29.1703 35.9957 28.5 35.166 28.5Z" fill="#6363E6"/>
</g>
<defs>
<clipPath id="clip0_3390_123450">
<rect width="24" height="24" fill="white" transform="translate(12.666 12)"/>
</clipPath>
</defs>
</svg>
