<svg width="48" height="48" viewBox="0 0 48 48" fill="none" xmlns="http://www.w3.org/2000/svg">
<rect width="48" height="48" rx="12" fill="#F7F7FF"/>
<path d="M34 24C34 29.5228 29.5228 34 24 34C18.4772 34 14 29.5228 14 24C14 18.4772 18.4772 14 24 14C29.5228 14 34 18.4772 34 24ZM18.5288 24C18.5288 27.0216 20.9784 29.4712 24 29.4712C27.0216 29.4712 29.4712 27.0216 29.4712 24C30 19 25.5 18.5 24 20C22.5 18.5 18 19 18.5288 24Z" fill="#6363E6"/>
<path d="M24.4881 29.9244L24.4899 29.9237C25.3476 29.6342 26.6834 28.9025 27.8114 27.7482C28.9454 26.5877 29.9 24.9664 29.9 22.91C29.9 20.9671 28.3394 19.39 26.4 19.39C25.4734 19.39 24.6243 19.7571 24.0001 20.3487C23.3726 19.752 22.5286 19.39 21.6 19.39C19.6606 19.39 18.1 20.9671 18.1 22.91C18.1 24.9663 19.0546 26.5876 20.1872 27.748C21.3137 28.9022 22.6468 29.6339 23.4992 29.9234L23.5019 29.9244C23.6606 29.9772 23.8413 29.995 23.995 29.995C24.1487 29.995 24.3294 29.9772 24.4881 29.9244ZM23.5987 21.3983C23.6932 21.5254 23.8422 21.6002 24.0006 21.6C24.1589 21.5998 24.3078 21.5247 24.402 21.3974C24.8516 20.7895 25.5851 20.39 26.4 20.39C27.7806 20.39 28.9 21.5129 28.9 22.91C28.9 24.6336 28.1046 26.0173 27.0961 27.0493C26.0822 28.087 24.8838 28.7351 24.1713 28.9759C24.1494 28.983 24.0855 28.995 23.995 28.995C23.9037 28.995 23.8394 28.9828 23.8181 28.9757L23.66 29.45L23.8208 28.9766C23.1132 28.7362 21.9163 28.0878 20.9028 27.0495C19.8954 26.0174 19.1 24.6337 19.1 22.91C19.1 21.5129 20.2194 20.39 21.6 20.39C22.4154 20.39 23.1391 20.7799 23.5987 21.3983ZM33.5 24C33.5 29.2467 29.2467 33.5 24 33.5C18.7533 33.5 14.5 29.2467 14.5 24C14.5 18.7533 18.7533 14.5 24 14.5C29.2467 14.5 33.5 18.7533 33.5 24Z" stroke="#6363E6" stroke-linecap="round" stroke-linejoin="round"/>
</svg>
