<svg width="44" height="44" viewBox="0 0 44 44" fill="none" xmlns="http://www.w3.org/2000/svg">
<rect x="0.583008" width="42.75" height="44" rx="12" fill="#F7F7FF"/>
<path fill-rule="evenodd" clip-rule="evenodd" d="M22.333 12H27.333C29.5421 12 31.333 13.7909 31.333 16V28C31.333 30.2091 29.5421 32 27.333 32H22.333C20.1239 32 18.333 30.2091 18.333 28V26V22.75L24.5223 22.75L22.8027 24.4697C22.5098 24.7626 22.5098 25.2374 22.8027 25.5303C23.0956 25.8232 23.5704 25.8232 23.8633 25.5303L26.1562 23.2374C26.8396 22.554 26.8397 21.446 26.1562 20.7626L23.8633 18.4697C23.5704 18.1768 23.0956 18.1768 22.8027 18.4697C22.5098 18.7626 22.5098 19.2374 22.8027 19.5303L24.5223 21.25L18.333 21.25V18V16C18.333 13.7909 20.1239 12 22.333 12ZM18.333 21.25H13.333C12.9188 21.25 12.583 21.5858 12.583 22C12.583 22.4142 12.9188 22.75 13.333 22.75H18.333V21.25Z" fill="#6363E6"/>
</svg>
                  