<svg width="18" height="18" viewBox="0 0 18 18" fill="none" xmlns="http://www.w3.org/2000/svg">
<path d="M13.648 17.0999C12.7293 17.9905 11.7262 17.8499 10.7605 17.428C9.73867 16.9968 8.80117 16.978 7.72304 17.428C6.37304 18.0093 5.66054 17.8405 4.85429 17.0999C0.279292 12.3843 0.954292 5.20303 6.14804 4.94053C7.41367 5.00615 8.29492 5.63428 9.03554 5.69053C10.1418 5.46553 11.2012 4.81865 12.3824 4.90303C13.798 5.01553 14.8668 5.57803 15.5699 6.59053C12.6449 8.34365 13.3387 12.1968 16.0199 13.2749C15.4855 14.6812 14.7918 16.078 13.6387 17.1093L13.648 17.0999ZM8.94179 4.88428C8.80117 2.79365 10.498 1.06865 12.448 0.899902C12.7199 3.31865 10.2543 5.11865 8.94179 4.88428Z" fill="black"/>
</svg>
